<svg width="70" height="70" viewBox="0 0 70 70" fill="none" xmlns="http://www.w3.org/2000/svg">
<path d="M62.8633 8.59955C59.541 10.3359 54.291 13.6308 50.8594 16.1328C43.9824 21.1367 37.8438 27.0566 33.5371 32.8671C31.8145 35.1777 30.4063 37.3925 29.2578 39.5663L28.3828 41.1933L27.8359 40.5644C27.5215 40.2089 25.5254 37.8984 23.3789 35.4238C21.2324 32.9492 19.3047 30.8163 19.0723 30.6933C18.7031 30.5019 17.9512 30.4745 11.8535 30.5156L5.03125 30.5566L4.70313 30.9394C4.16993 31.5683 4.25196 32.2382 4.96289 33.0585C5.27735 33.4277 11.375 40.0449 18.5117 47.7558C26.0859 55.9452 31.6367 61.8378 31.8555 61.9335C32.4023 62.1523 33.168 61.8925 33.4141 61.414C33.5098 61.2089 33.8516 60.0878 34.166 58.9257C37.8574 45.2402 45.3906 31.4589 55.4668 19.9335C57.5859 17.5136 61.4277 13.6308 63.6016 11.7304C64.627 10.8417 65.502 10.0078 65.543 9.89838C65.666 9.57025 65.6387 8.90033 65.4883 8.59955C65.3242 8.31244 64.668 7.92963 64.3398 7.92963C64.2168 7.92963 63.5605 8.23041 62.8633 8.59955ZM54.3867 17.0488C54.2773 17.1855 53.6074 17.9648 52.8965 18.7988C45.8691 26.9472 39.8535 36.5312 35.8203 46.0058C34.4941 49.1093 32.6621 54.2773 31.9238 56.9706C31.7871 57.4492 31.6367 57.832 31.5957 57.832C31.541 57.832 29.0117 55.1386 25.9629 51.8437C22.9277 48.5624 17.8008 43.0253 14.5879 39.539L8.73633 33.2226H13.3164H17.8828L22.9004 39.0058C25.6621 42.1777 28.082 44.8574 28.2598 44.9531C28.6836 45.1855 29.4082 45.0761 29.709 44.7343C29.832 44.6113 30.1465 43.9824 30.4199 43.3398C33.5371 36.0253 40.5098 27.6581 49.2871 20.6992C50.5313 19.7148 54.4414 16.83 54.5371 16.8163C54.5645 16.8163 54.4961 16.9257 54.3867 17.0488Z" fill="black"/>
</svg>
