<svg width="65" height="65" viewBox="0 0 65 65" fill="none" xmlns="http://www.w3.org/2000/svg">
<path d="M15.603 0.0877304C11.7179 0.626629 8.30909 3.08301 6.5796 6.57959C5.62712 8.52214 5.48926 9.18636 5.4266 12.3195C5.36394 14.7132 5.33887 15.0641 5.15088 15.1268C3.49659 15.6532 2.2684 16.6558 1.59164 18.0343C1.21566 18.8239 1.1906 18.9367 1.1906 20.3027C1.1906 21.6562 1.21566 21.7941 1.57911 22.5711C2.25586 23.9998 3.33366 24.9523 4.78744 25.391L5.5018 25.6165L5.65219 26.3058C6.49187 30.3538 9.27409 34.0133 12.9461 35.8556L13.9111 36.3444V37.3971V38.4373L11.5049 38.5125C8.78533 38.5752 7.77019 38.7757 6.15349 39.5402C3.03288 41.019 0.764491 43.9893 0.187993 47.3229C0.0250702 48.2879 5.08875e-06 49.4785 0.0250702 54.7171C0.0626679 60.8455 0.0626679 60.9834 0.338384 61.5599C0.714361 62.387 1.6543 63.3521 2.49398 63.7531L3.19581 64.104H32.146H61.0962L61.6852 63.8283C62.5124 63.4523 63.3521 62.6252 63.7531 61.798C64.0414 61.209 64.0915 60.9333 64.104 60.0309C64.104 59.0409 64.0789 58.9155 63.6528 58.151C63.4022 57.6999 60.3693 52.8247 56.9229 47.3104C52.6242 40.4425 50.4435 37.0588 49.9798 36.5825C48.8394 35.3794 47.1475 35.0034 45.5308 35.6175C44.3652 36.0562 43.8263 36.7204 40.8561 41.4702C39.3773 43.8389 38.124 45.8315 38.0864 45.8942C38.0488 45.9443 37.8608 45.6185 37.6729 45.1548C36.8457 43.137 35.041 41.0692 33.1486 39.9914C31.181 38.8634 29.439 38.4749 26.3685 38.4749H24.5638V37.4347V36.3945L25.2907 36.0436C29.0129 34.2264 31.77 30.7674 32.7476 26.6818L33.0107 25.604L33.6875 25.391C35.5799 24.8145 36.9585 23.2354 37.347 21.2051C37.6603 19.626 37.0588 17.7461 35.8306 16.5179C35.2415 15.9289 33.888 15.1644 33.4369 15.1644C33.2363 15.1644 33.2113 15.014 33.2113 13.6855C33.2113 10.2391 32.8353 8.32162 31.7575 6.29134C30.0405 3.03288 26.9951 0.827148 23.3482 0.187988C22.5586 0.0501328 21.4307 0 19.1247 0.0125351C17.3952 0.0250702 15.8161 0.0626678 15.603 0.0877304ZM23.085 2.30599C27.7471 3.20834 30.9554 7.05583 30.9554 11.743C30.9554 12.4448 30.9303 13.0339 30.8927 13.0339C30.8552 13.0339 30.3664 12.8459 29.8024 12.6077C26.5314 11.2668 23.486 10.7153 19.1748 10.7279C15.1393 10.7279 12.3571 11.2166 9.04851 12.4824C8.25896 12.7832 7.59473 13.0339 7.55713 13.0339C7.40674 13.0339 7.63233 9.91325 7.82032 9.21143C8.78533 5.73991 11.7054 3.05795 15.2897 2.31852C16.4552 2.08041 21.8568 2.06787 23.085 2.30599ZM23.4985 13.0965C25.5413 13.4098 27.7972 14.0615 29.7523 14.9137L30.3789 15.1769L29.6896 15.8662C28.4489 17.1195 27.7596 17.2699 25.6416 16.731C23.7367 16.2422 21.8066 16.0417 19.1999 16.0417C16.6056 16.0417 14.8385 16.2422 12.9211 16.7184C10.7404 17.2699 10.026 17.1195 8.78533 15.8662L8.10857 15.1769L8.59734 14.9764C11.2542 13.8359 13.8986 13.1466 16.5054 12.9085C18.1722 12.7581 21.957 12.8584 23.4985 13.0965ZM5.33887 23.2729C5.31381 23.298 5.06316 23.2103 4.78744 23.0724C3.55925 22.4458 2.95769 20.7915 3.40886 19.2876C3.58432 18.6735 4.27361 17.8589 4.87517 17.5581L5.32634 17.32L5.36394 20.2651C5.37647 21.8944 5.36394 23.2479 5.33887 23.2729ZM34.2515 18.0343C34.828 18.5732 35.041 18.9492 35.2165 19.7262C35.4797 20.9043 34.8154 22.3831 33.7502 23.0223L33.2113 23.3356V20.3153V17.2824L33.4995 17.4328C33.6499 17.508 33.9883 17.7837 34.2515 18.0343ZM9.09864 18.7738C9.37435 18.9116 9.93832 19.0871 10.3519 19.1623C11.1665 19.3127 11.6051 19.2625 13.4349 18.7988C16.6934 17.9591 21.7816 17.9591 25.04 18.7988C25.6165 18.9367 26.3685 19.1121 26.7319 19.1748C27.9225 19.4129 29.4891 18.9367 30.5168 18.0343L30.9554 17.6458V21.2928C30.9554 24.1377 30.9053 25.1654 30.7549 25.9048C29.8651 30.2285 26.5064 33.7251 22.1074 34.9157C20.9043 35.2415 17.5957 35.2541 16.4302 34.9282C12.2694 33.7878 9.17383 30.8175 7.94564 26.757C7.60726 25.6541 7.59473 25.5664 7.5446 21.6312L7.49447 17.6333L8.0459 18.0719C8.33415 18.3226 8.81039 18.6359 9.09864 18.7738ZM18.1471 37.3595C19.25 37.4723 20.804 37.3971 22.0322 37.1465L22.4333 37.0588V38.6755C22.4333 40.4425 22.3079 40.8937 21.6061 41.7209C20.4531 43.0994 17.9592 43.0493 16.7936 41.6331C16.2046 40.9188 16.0417 40.2546 16.0417 38.5627V37.0588L16.5179 37.1465C16.7686 37.1966 17.508 37.2843 18.1471 37.3595ZM48.2253 37.8107C48.6012 38.0864 61.6852 58.8278 61.9233 59.5171C62.2116 60.3818 61.7354 61.4095 60.8706 61.8356C60.4696 62.0111 59.1913 62.0361 47.0597 62.0361C34.9282 62.0361 33.6499 62.0111 33.2489 61.8356C32.6222 61.5348 32.1836 60.8831 32.1209 60.1813C32.0457 59.467 31.5068 60.3818 39.5653 47.561C44.1647 40.2546 45.6561 37.9736 45.9945 37.748C46.3579 37.4974 46.5459 37.4598 47.16 37.4974C47.6237 37.535 47.9997 37.6478 48.2253 37.8107ZM10.6777 44.1522L10.7153 47.7114L11.0537 48.2127C11.7179 49.2279 11.4422 49.1903 19.3127 49.1903H26.2682L26.8071 48.8394C27.7596 48.2002 27.8223 47.9621 27.8223 44.0143V40.5929L28.5492 40.6681C28.9377 40.7057 29.6395 40.8561 30.1157 40.994L30.9554 41.2446V49.2529V57.2738L30.6546 57.75C29.9403 58.8779 29.7774 60.1813 30.1909 61.3719L30.4165 62.0361H27.4964H24.5763L25.2531 61.0962C26.4688 59.3918 26.6818 58.5145 26.6943 55.256C26.6943 52.8999 26.6818 52.7746 26.4061 52.3735C26.2557 52.1479 25.9299 51.8221 25.7043 51.6717L25.2782 51.3835H19.2751C12.6203 51.3835 12.8584 51.3584 12.1942 52.2231L11.8433 52.6743L11.8057 55.0806C11.7806 56.9103 11.8057 57.6873 11.9561 58.314C12.1942 59.3166 12.8459 60.6576 13.46 61.397C13.7106 61.6978 13.9111 61.9609 13.9111 61.986C13.9111 62.0111 12.4699 62.0361 10.7153 62.0361H7.51954V51.6466V41.2572L8.1587 41.0441C8.76026 40.8436 9.72527 40.6556 10.3644 40.618L10.6401 40.6055L10.6777 44.1522ZM14.1618 41.182C14.5378 42.5104 15.6908 43.7887 17.1195 44.453C17.7837 44.7663 17.9968 44.8039 19.2375 44.8039C20.5283 44.8039 20.6662 44.7788 21.4557 44.4028C22.6213 43.8514 23.4735 43.0243 23.9873 41.9339C24.2254 41.4452 24.451 40.9438 24.4886 40.8185C24.5387 40.6556 24.6891 40.6055 25.1278 40.6055H25.6917V43.8013V46.9971H19.2375H12.7832V43.889C12.7832 42.172 12.8208 40.7308 12.8709 40.6932C12.9085 40.6431 13.1843 40.6055 13.4725 40.6055C13.9989 40.6055 14.0114 40.618 14.1618 41.182ZM5.389 52.3234V62.0361H4.63705C4.22348 62.0361 3.69711 61.9609 3.47152 61.8607C2.98275 61.6602 2.44385 61.0962 2.2684 60.62C2.18067 60.3818 2.13054 58.2388 2.13054 54.3787C2.13054 47.6237 2.16814 47.2728 3.07048 45.4305C3.58432 44.3652 4.9629 42.6107 5.27621 42.6107C5.33887 42.6107 5.389 46.5584 5.389 52.3234ZM34.8906 44.4906C35.5549 45.4932 36.0311 46.6587 36.2191 47.7866L36.3695 48.6263L34.8405 51.0702C34.0008 52.4111 33.299 53.514 33.2614 53.514C33.2363 53.514 33.2113 51.0451 33.2113 48.0373V42.5605L33.7878 43.112C34.1011 43.4253 34.6024 44.0394 34.8906 44.4906ZM24.5638 55.5067C24.5638 57.1359 24.5137 57.6497 24.3257 58.2889C23.7241 60.2189 22.1325 61.585 20.0646 61.9359C17.7712 62.3244 15.4401 61.0461 14.3748 58.8153C13.9738 57.9756 13.9738 57.938 13.9362 55.7323L13.8861 53.514H19.2249H24.5638V55.5067Z" fill="black"/>
<path d="M14.2746 28.1857C14.0741 28.3862 13.9111 28.687 13.9111 28.8625C13.9111 29.6771 15.4526 31.1559 16.8939 31.7199C17.8589 32.1084 20.3654 32.146 21.4307 31.7951C22.922 31.3063 24.5638 29.7773 24.5638 28.875C24.5638 28.2985 24.1001 27.8223 23.5487 27.8223C23.2354 27.8223 23.0223 27.9601 22.4458 28.5617C21.4557 29.6019 20.8792 29.8651 19.4881 29.9277C17.9341 29.9904 17.2448 29.7272 16.1419 28.6369C15.1769 27.6969 14.8511 27.6092 14.2746 28.1857Z" fill="black"/>
<path d="M46.408 43.7009C45.9819 44.0894 43.0368 48.6889 42.8488 49.2528C42.6859 49.7166 42.8864 50.4936 43.2749 50.857C43.7261 51.2831 44.265 51.3834 46.0195 51.3834H47.6237L46.032 53.6016C45.1673 54.8298 44.4028 55.8826 44.3527 55.9452C44.3026 56.0079 44.1898 55.8199 44.1146 55.5442C43.9642 54.9426 43.5882 54.6418 43.0117 54.6418C42.4853 54.6418 41.984 55.1181 41.9966 55.6069C41.9966 55.7948 42.2096 56.7473 42.4603 57.6998C42.8488 59.1786 42.9741 59.4794 43.2624 59.6925L43.6007 59.9431L44.8289 59.6674C45.5057 59.517 46.4456 59.2789 46.9093 59.141C47.6738 58.9154 47.7866 58.8403 47.9495 58.4643C48.2879 57.6497 47.749 56.9729 46.8216 57.0481C46.4958 57.0732 46.2451 57.0606 46.2451 57.0356C46.2451 57.0105 47.1224 55.7572 48.2002 54.2533C50.3056 51.2957 50.4811 50.9197 50.0801 50.1677C49.654 49.328 49.4284 49.2528 47.2978 49.2528C46.2326 49.2528 45.3678 49.2278 45.3678 49.1902C45.3678 49.1526 45.9945 48.1375 46.7464 46.9469C47.5736 45.6435 48.125 44.6409 48.125 44.4529C48.125 44.0142 47.6487 43.5004 47.1725 43.4127C46.8467 43.35 46.7088 43.4001 46.408 43.7009Z" fill="black"/>
<path d="M17.7335 56.7974C17.0944 57.1358 16.9565 58.0256 17.4578 58.5019C17.721 58.7525 17.8839 58.7776 19.25 58.7776C20.6536 58.7776 20.779 58.7525 21.0171 58.4893C21.1549 58.3389 21.3179 58.0883 21.3555 57.9379C21.4682 57.5745 21.1549 56.9854 20.7414 56.7974C20.3278 56.6095 18.0719 56.6095 17.7335 56.7974Z" fill="black"/>
</svg>
