<svg width="70" height="70" viewBox="0 0 70 70" fill="none" xmlns="http://www.w3.org/2000/svg">
<g clip-path="url(#clip0_42_77)">
<path d="M25.5117 0.273499C24.6914 0.601624 23.8711 1.35358 23.4609 2.18756C23.2969 2.52936 22.791 3.6778 22.3535 4.7442L21.5469 6.69928H15.3535C8.61328 6.69928 8.79102 6.68561 8.03906 7.47858C7.47852 8.06647 7.38281 8.4903 7.38281 10.4044V12.168H7.01367C6.50781 12.1817 5.60547 12.5919 5.23633 13.002C4.74414 13.5489 4.64844 14.0137 4.64844 16.0098C4.64844 17.6504 4.68945 17.9922 4.92188 18.4571C5.40039 19.4004 6.33008 19.8243 7.88867 19.8243H8.73633L8.80469 20.2618C8.83203 20.5079 9.14648 31.5137 9.50195 44.7071C9.84375 57.9004 10.1582 68.8926 10.1992 69.1387C10.3223 69.959 10.5273 70.0001 13.8906 70.0001C16.748 70.0001 16.9395 69.9864 17.2813 69.7129C17.7734 69.3301 17.7734 68.6192 17.2813 68.2364C16.9395 67.9766 16.7344 67.9493 14.5469 67.9493H12.168V67.6075C12.168 67.2793 10.9922 23.9122 10.9102 21.2188L10.8555 19.8243H25.1836C34.7539 19.8243 39.6211 19.7833 39.8672 19.6876C40.6328 19.3868 40.8379 18.5938 40.291 18.0743L39.9766 17.7735H23.502C14.4512 17.7735 6.95898 17.7188 6.86328 17.6641C6.74023 17.5684 6.69922 17.1309 6.72656 15.9141L6.76758 14.2872H30.5566H54.3457L54.3867 15.9141C54.4141 17.1309 54.3731 17.5684 54.25 17.6641C54.1543 17.7188 51.7891 17.7735 49 17.7735H43.9277L43.6406 18.0879C43.1074 18.6485 43.2988 19.4141 44.0371 19.6739C44.3106 19.7696 45.6094 19.8243 47.3594 19.8243H50.2578L50.2031 21.9708C50.1758 23.1602 50.1074 25.17 50.0664 26.4551L49.9707 28.7794L46.9492 28.8204L43.9277 28.8477L43.6816 28.4786C42.9434 27.3028 42.041 26.7696 40.8106 26.7559C39.5117 26.7422 38.3906 27.4669 37.8574 28.6426C37.625 29.1485 37.5977 29.7364 37.5977 37.6934V46.1973L37.2012 47.4004C36.6406 49.0821 36.5859 49.4786 35.8203 57.8321C35.0957 65.7071 35.0273 66.8282 35.2598 67.4434C35.3418 67.6622 35.4102 67.8536 35.4102 67.8946C35.4102 67.9219 32.2109 67.9493 28.2871 67.9493C23.9941 67.9493 21.082 68.004 20.9316 68.086C20.7949 68.1543 20.6035 68.3868 20.5215 68.6192C20.3848 68.9473 20.3848 69.084 20.5625 69.4258C20.6719 69.6446 20.877 69.8633 20.9863 69.918C21.1094 69.959 30.3926 70.0001 41.6172 70.0001C64.4082 70.0001 62.8633 70.0684 64.0391 69.0293C64.8867 68.2774 65.2422 67.5528 65.3106 66.4454C65.3379 65.9532 65.1602 63.2872 64.9004 60.5118C64.4629 55.7129 64.4219 55.4532 64.1211 55.2071C63.4922 54.6876 62.4805 55.0977 62.4805 55.8907C62.4668 56.0958 62.6719 58.5704 62.9043 61.3868C63.3965 67.1016 63.4102 67.0196 62.4941 67.6348L62.0293 67.9493L50.0801 67.9219L38.1172 67.8809L37.6523 67.3751C37.2422 66.9102 37.1875 66.7735 37.1875 66.0762C37.1875 64.7501 38.541 50.4356 38.7734 49.3555C40.0039 43.545 45.5957 39.5254 51.4883 40.1954C57.0117 40.8106 61.2363 44.9805 61.9336 50.4766C62.084 51.7071 62.3984 52.2266 62.9863 52.2266C63.8477 52.2266 64.1348 51.6524 63.9707 50.2579C63.6016 47.209 62.1797 44.2969 60.0059 42.1368C58.9941 41.1114 57.2305 39.8536 56.1504 39.3751L55.5215 39.1016L56.3965 37.2833C57.75 34.4532 58.3789 32.2657 58.3789 30.3106C58.3789 28.8067 58.4883 28.8477 54.9746 28.8477H52.0625L52.1445 25.0469C52.1992 22.9688 52.2676 20.9454 52.3086 20.5626L52.377 19.8653L53.6074 19.7969C54.6191 19.7286 54.9199 19.6602 55.3711 19.3594C56.3008 18.7442 56.4648 18.2247 56.4648 15.9962C56.4648 14.67 56.4102 13.9317 56.2734 13.6172C56 12.9473 55.1523 12.3184 54.4004 12.2227L53.7441 12.1407L53.7031 10.1993C53.6621 8.38092 53.6348 8.21686 53.3203 7.75201C53.1426 7.47858 52.7598 7.13678 52.4863 6.98639C51.9941 6.71295 51.7891 6.69928 45.7734 6.69928H39.5664L39.1016 5.56451C37.4063 1.43561 36.9824 0.79303 35.5742 0.273499C34.9043 0.0274048 34.5215 6.10352e-05 30.5156 6.10352e-05C26.5781 0.0137329 26.127 0.0410767 25.5117 0.273499ZM34.9727 2.24225C35.5605 2.54303 35.752 2.84381 36.5039 4.6485C36.8867 5.59186 37.2422 6.43951 37.2832 6.52155C37.3379 6.65826 35.9434 6.69928 30.5566 6.69928C25.1699 6.69928 23.7754 6.65826 23.8301 6.52155C23.8711 6.43951 24.2266 5.59186 24.6094 4.6485C25.4023 2.76178 25.457 2.66608 26.0449 2.29694C26.4141 2.07819 26.8242 2.05084 30.5293 2.05084C33.7559 2.05084 34.6855 2.09186 34.9727 2.24225ZM51.6113 10.459V12.0997H30.5566H9.50195L9.46094 10.6094C9.44727 9.77545 9.46094 9.0235 9.48828 8.9278C9.54297 8.7774 13.2891 8.75006 30.584 8.7774L51.6113 8.81842V10.459ZM41.6719 29.2032L41.9727 29.545L41.959 35.1778L41.9453 40.8106L40.7969 41.8907L39.6484 42.9708V36.2852C39.6484 30.3653 39.6758 29.5586 39.8672 29.2852C40.3184 28.629 41.125 28.6016 41.6719 29.2032ZM56.2598 31.4044C55.959 33.127 55.125 35.4512 54.1133 37.3243C53.8125 37.8848 53.5391 38.3633 53.5254 38.3907C53.4981 38.418 53.0742 38.3633 52.582 38.2676C51.8164 38.1446 51.6797 38.0762 51.7481 37.8848C52.3223 36.4083 52.418 35.9708 52.2539 35.629C51.9121 34.8633 50.8867 34.8223 50.4766 35.5469C50.3535 35.7794 50.2031 35.9571 50.1621 35.9571C50.1074 35.9571 49.9707 35.67 49.834 35.3282C49.3965 34.1934 48.7949 33.8926 48.0703 34.4669C47.5781 34.8497 47.6055 35.3555 48.2481 36.8731L48.7676 38.1172L47.8789 38.2813C47.3867 38.3633 46.9356 38.377 46.8809 38.3223C46.8262 38.2676 46.4297 37.5294 46.0195 36.709C45.1856 35.0274 44.3652 32.7169 44.2148 31.6094L44.1191 30.8985H50.2305H56.3418L56.2598 31.4044Z" fill="black"/>
<path d="M19.4824 26.7833C18.416 27.0568 17.4043 27.9865 17.1172 28.9708C16.9941 29.3537 16.9531 33.4962 16.9531 44.4474V59.4044L17.2812 60.088C17.8691 61.3458 19.0449 62.0158 20.5078 61.9064C21.4785 61.838 22.2441 61.3732 22.9004 60.4435L23.3105 59.8556L23.3516 44.7345C23.3652 36.4083 23.3516 29.4083 23.3105 29.1759C23.0371 27.6583 21.0137 26.3869 19.4824 26.7833ZM21.0273 29.1486L21.3281 29.4357V44.3244V59.213L20.9863 59.5412C20.5352 60.006 19.7969 60.006 19.3457 59.5412L19.0039 59.213V44.4064C19.0039 31.0216 19.0312 29.5587 19.2227 29.2853C19.6602 28.6564 20.4258 28.6017 21.0273 29.1486Z" fill="black"/>
<path d="M29.873 26.7832C28.8066 27.0566 27.7539 28.0136 27.4941 28.9433C27.3984 29.2988 27.3438 34.3027 27.3438 44.4335V59.4043L27.6719 60.1015C28.3555 61.5781 29.9414 62.2617 31.6367 61.7832C32.334 61.5918 33.3867 60.539 33.6055 59.8007C33.7285 59.3769 33.7695 55.6582 33.7695 44.2421C33.7695 27.6992 33.8242 28.7246 32.9082 27.7812C32.1152 26.9472 30.8574 26.5371 29.873 26.7832ZM31.418 29.2031L31.7188 29.5449V44.3789V59.2128L31.377 59.541C30.9258 60.0058 30.1875 60.0058 29.7363 59.541L29.3945 59.2128V44.4062C29.3945 31.0214 29.4219 29.5586 29.6133 29.2851C30.0645 28.6289 30.8711 28.6015 31.418 29.2031Z" fill="black"/>
</g>
<defs>
<clipPath id="clip0_42_77">
<rect width="70" height="70" fill="white"/>
</clipPath>
</defs>
</svg>
