<svg width="70" height="70" viewBox="0 0 70 70" fill="none" xmlns="http://www.w3.org/2000/svg">
<path d="M3.21289 0.164062C2.54297 0.396484 1.95508 0.916016 1.6543 1.54492L1.36719 2.13281V27.9863V53.8262L1.68164 54.4277C1.85938 54.7559 2.26953 55.207 2.58398 55.4395L3.17188 55.8496L22.1895 55.8906C39.5938 55.918 41.2207 55.9453 41.4531 56.1504C41.6855 56.3555 41.6992 56.7246 41.6992 61.8242C41.6992 65.3105 41.7539 67.498 41.8496 67.8672C42.041 68.6328 42.6973 69.4258 43.3945 69.7402C43.9004 69.9727 44.3789 70 48.4121 70C53.375 70 53.3613 70 53.5391 69.084C53.6074 68.7285 53.5527 68.5781 53.2793 68.3047L52.9238 67.9492H48.6309C45.1445 67.9492 44.2969 67.9082 44.0781 67.7578C43.832 67.5664 43.8184 67.3066 43.75 61.6191L43.6816 55.6855L43.2852 55.125C43.0391 54.7695 42.6426 54.4277 42.2051 54.209L41.5078 53.8672H35.8613H30.2148V52.7051V51.5293L36.2031 51.5703L42.1777 51.6113L43.0938 52.0488C44.2012 52.5684 45.0898 53.4434 45.623 54.5234L46.0059 55.3027L46.0742 60.1973L46.1426 65.1055L46.4707 65.3652C46.7715 65.6113 47.127 65.625 55.166 65.625C63.4238 65.625 63.5469 65.625 63.9023 65.3379L64.2578 65.0645V50.5723V36.0938H65.4199H66.582V51.8027C66.582 65.9121 66.5547 67.5391 66.3633 67.7305C66.1855 67.9219 65.4609 67.9492 60.5801 67.9492C55.1387 67.9492 54.9883 67.9629 54.6328 68.2363C54.1406 68.6328 54.1406 69.3301 54.6465 69.7266C55.002 70 55.0977 70.0137 60.8262 69.9727C66.4316 69.9316 66.6777 69.918 67.1973 69.6445C67.498 69.4941 67.9355 69.0977 68.1543 68.7832L68.5645 68.1953V35V1.80469L68.1543 1.2168C67.9355 0.902344 67.498 0.505859 67.1973 0.355469L66.6504 0.0683594L41.7949 0.0273438L16.9395 0L16.6113 0.328125C16.1738 0.765625 16.1738 1.28516 16.6113 1.70898L16.9395 2.05078H41.5488C63.7383 2.05078 66.1719 2.07812 66.3633 2.26953C66.5547 2.46094 66.582 3.44531 66.582 11.0879V19.6875H65.4199H64.2578V12.3184V4.93555L63.9023 4.66211L63.5332 4.375H35H6.4668L6.09766 4.66211L5.74219 4.93555V27.9453V50.9551L6.05664 51.2422C6.37109 51.543 6.4668 51.543 10.1582 51.543H13.9453V52.7051V53.8672H8.90039C4.48438 53.8672 3.81445 53.8398 3.63672 53.6484C3.44531 53.457 3.41797 50.9414 3.41797 27.959C3.41797 4.97656 3.44531 2.46094 3.63672 2.26953C3.81445 2.07812 4.4707 2.05078 8.69531 2.05078H13.5488L13.877 1.70898C14.3145 1.28516 14.3145 0.765625 13.877 0.341797L13.5488 0L8.58594 0.0136719C5.50977 0.0136719 3.47266 0.0820312 3.21289 0.164062ZM11.7578 15.2988V24.1582L12.0723 24.623C12.2363 24.8691 12.5371 25.1562 12.7148 25.252C12.9746 25.3887 14.5605 25.4297 19.1816 25.4297H25.293L25.8125 24.9648L26.3184 24.5L26.3594 15.4629L26.3867 6.42578H29.1211H31.8555V14.875V23.3242L31.4043 23.4883C30.9668 23.6387 30.625 24.1035 30.625 24.5273C30.625 24.623 30.748 24.8691 30.9121 25.0742C31.1855 25.4297 31.2129 25.4297 32.9219 25.4297C34.4941 25.4297 34.6719 25.4023 34.959 25.1289C35.5742 24.5547 35.2188 23.6113 34.3164 23.4199L33.9062 23.3379V14.8887V6.42578H35.4648H37.0371L37.0781 9.80273C37.1191 13.0156 37.1328 13.2207 37.4336 13.7676C37.8848 14.6289 38.4453 15.2168 39.2656 15.668C39.9082 16.0234 40.1133 16.0645 41.1523 16.0645C42.1094 16.0645 42.4238 16.0098 42.9297 15.7363C43.7637 15.2988 44.3926 14.6973 44.8164 13.877C45.1855 13.1934 45.1855 13.1797 45.2266 9.80273L45.2676 6.42578H46.5391H47.8105L47.8926 7.4375C48.0293 9.21484 48.8223 10.459 50.2305 11.1016C50.8867 11.4023 51.0918 11.416 53.7988 11.416C56.9844 11.416 57.3535 11.334 58.4062 10.4043C59.2266 9.69336 59.6094 8.75 59.6094 7.49219V6.42578H60.9082H62.207V24.2676V42.1094H59.7461C57.5723 42.1094 57.2168 42.1367 56.752 42.3691C56.0684 42.7246 55.4258 43.4766 55.248 44.1191C55.1523 44.4473 55.0977 46.9629 55.0977 50.9414V57.2305L55.4805 57.9824C55.7539 58.5293 56.0137 58.8164 56.5195 59.1309L57.1895 59.541L59.7051 59.582L62.207 59.623V61.6055V63.5742H55.166H48.125V59.6367C48.125 55.2754 48.0566 54.7422 47.2637 53.2656C46.7441 52.2949 45.582 51.0645 44.6934 50.5449C43.3809 49.7793 42.6152 49.6016 40.3047 49.5195L38.1445 49.4648V42.1641V34.8633H44.3652H50.5859L50.6816 35.2734C50.7637 35.7246 51.2969 36.2305 51.6797 36.2305C51.8164 36.2305 52.0762 36.1074 52.2812 35.9434C52.6367 35.6699 52.6367 35.6562 52.6367 33.7422C52.6367 31.5273 52.5547 31.3086 51.6797 31.3086C51.0781 31.3086 50.7773 31.5957 50.6543 32.293L50.5586 32.8125H43.5996C36.8184 32.8125 36.627 32.8262 36.3672 33.0859C36.0938 33.3594 36.0938 33.5371 36.0938 41.4258V49.4922H21.9434H7.79297V47.9883V46.4844H16.5156C26.2227 46.4844 25.8262 46.5254 26.4824 45.541C26.7969 45.0898 26.7969 45.0078 26.7969 41.1523C26.7969 37.2969 26.7969 37.2148 26.4824 36.7637C25.8262 35.7793 26.2227 35.8203 16.5156 35.8203H7.79297V34.5898V33.3594H17.1582C26.4961 33.3594 26.5234 33.3594 26.5234 33.6328C26.5234 34.0293 27.125 34.5898 27.5488 34.5898C27.7402 34.5898 28.0547 34.4395 28.2324 34.248C28.5605 33.9336 28.5742 33.8379 28.5742 32.2656C28.5742 30.6934 28.5605 30.5977 28.2324 30.2832C28.0547 30.0918 27.7402 29.9414 27.5488 29.9414C27.0977 29.9414 26.5234 30.5156 26.5234 30.9668V31.3086H17.1582H7.79297V18.8672V6.42578H9.77539H11.7578V15.2988ZM24.3359 7.65625V8.88672H19.0723H13.8086V7.65625V6.42578H19.0723H24.3359V7.65625ZM57.5586 7.24609C57.5586 8.24414 57.3125 8.79102 56.6973 9.11914C56.3281 9.32422 55.8906 9.36523 53.7305 9.36523C51.5293 9.36523 51.1328 9.33789 50.8184 9.11914C50.2441 8.75 50.0117 8.27148 49.9297 7.31445L49.8613 6.42578H53.7168H57.5586V7.24609ZM43.2031 9.59766C43.2031 12.7969 43.1348 13.1523 42.3418 13.7266C41.7949 14.123 40.5098 14.123 39.9766 13.7402C39.1699 13.1387 39.1016 12.7969 39.1016 9.61133V6.69922H41.1523H43.2031V9.59766ZM24.3359 17.1582V23.3789H19.0723H13.8086V17.1582V10.9375H19.0723H24.3359V17.1582ZM66.582 27.8906V34.0566L65.4609 34.0156L64.3262 33.9746L64.2852 28.0273C64.2715 24.7598 64.2852 21.998 64.3262 21.9023C64.3672 21.793 64.7363 21.7383 65.4883 21.7383H66.582V27.8906ZM10.2539 41.1523V44.4336H9.02344H7.79297V41.1523V37.8711H9.02344H10.2539V41.1523ZM24.7461 41.1523V44.4336H18.5254H12.3047V41.1523V37.8711H18.5254H24.7461V41.1523ZM62.207 50.8594V57.5586H59.9922C57.9141 57.5586 57.7637 57.5449 57.4629 57.2578L57.1484 56.9707V50.8594C57.1484 45.5684 57.1758 44.7344 57.3672 44.4609C57.5723 44.1738 57.6543 44.1602 59.8965 44.1602H62.207V50.8594ZM28.1641 52.7051V53.8672H22.0801H15.9961V52.7051V51.543H22.0801H28.1641V52.7051Z" fill="black"/>
<path d="M53.0059 18.1017C49.8203 19.2911 49.6289 23.5021 52.7051 24.8966C53.5117 25.2657 54.8516 25.2384 55.7129 24.8282C56.9981 24.2404 57.7227 23.0782 57.75 21.6017C57.7637 20.1525 57.0391 18.963 55.7403 18.2931C55.0293 17.9376 53.7031 17.8419 53.0059 18.1017ZM55.166 20.3712C56.2871 21.4239 55.6446 23.1056 54.1406 23.1056C53.0469 23.1056 52.2949 22.1349 52.6367 21.1368C52.7871 20.6857 53.211 20.2072 53.5938 20.0568C53.9766 19.8927 54.8516 20.0704 55.166 20.3712Z" fill="black"/>
</svg>
