<svg width="70" height="70" viewBox="0 0 70 70" fill="none" xmlns="http://www.w3.org/2000/svg">
<g clip-path="url(#clip0_42_61)">
<path d="M59.9512 0.218811C59.7324 0.328186 58.8711 1.08014 58.0644 1.88678C56.6699 3.25397 56.5195 3.45905 55.7129 5.05865C55.0703 6.31647 54.6601 6.94538 54.1543 7.45124C53.539 8.0528 53.416 8.10749 53.1836 7.9571C52.7734 7.711 52.2812 7.76569 51.8848 8.10749C51.584 8.35358 51.5156 8.55866 51.4473 9.29694L51.3789 10.1856L49.9433 11.6348C48.5078 13.084 48.5078 13.084 48.125 12.8926C47.2363 12.4551 46.4844 13.1114 46.4844 14.3419V15.1075L42.9707 18.6212L39.4433 22.1212L36.2305 23.7208L33.0176 25.3204L20.125 38.1856C13.0293 45.2676 7.1367 51.2286 7.02733 51.4337C6.91795 51.6387 6.83592 52.0352 6.83592 52.3087C6.83592 52.7735 6.6992 52.9512 5.45506 54.2364C3.8828 55.8497 3.52733 56.5059 3.51366 57.7501C3.49999 59.254 4.3203 60.5528 5.67381 61.1954L6.35741 61.5235H13.9453H21.5195L25.9082 63.793L30.2832 66.0626L32.0742 67.8262C34.2207 69.9454 34.8906 70.2872 36.0527 69.8633C36.4902 69.6993 46.1289 60.1563 46.4297 59.5821C46.539 59.377 46.6211 58.9122 46.6211 58.543C46.6211 57.668 46.1836 57.0118 44.543 55.4122C42.2871 53.211 41.5078 53.1837 39.4297 55.2481L38.3223 56.3419L36.2031 48.5762L34.0703 40.8106L35.9023 38.9649L37.7344 37.1192L38.5547 37.9395L39.375 38.7462L38.418 39.7169C37.5976 40.5372 37.4609 40.7559 37.4609 41.1661C37.4609 42.0684 38.1855 42.5743 38.9922 42.2325L39.4023 42.0684L42.6699 45.336C44.9805 47.6465 45.9101 48.6583 45.8555 48.8087C45.8008 48.918 45.7324 49.2051 45.6914 49.4512C45.6094 50.0665 46.1426 50.586 46.8535 50.586C47.332 50.586 47.5098 50.4356 50.1348 47.8106C52.6914 45.254 52.9101 45.0079 52.9101 44.5567C52.9101 43.709 52.0488 43.1212 51.2969 43.463C50.9551 43.627 50.8594 43.545 47.6738 40.3594L44.3926 37.0782L44.5703 36.6544C44.7754 36.1622 44.5703 35.4923 44.1465 35.2735C43.5176 34.9317 43.0664 35.1094 42.0547 36.0938L41.0703 37.0508L40.2637 36.2305L39.457 35.4102L40.291 34.5489C41.043 33.7969 41.3164 33.3321 42.834 30.2833C44.5156 26.9337 44.5703 26.8516 45.6367 25.7852L46.7305 24.7188L47.1953 24.8692C48.166 25.1973 48.8086 24.6094 48.8086 23.379V22.627L50.2715 21.1641C51.5566 19.8653 51.7617 19.7149 52.0078 19.8516C52.4453 20.0841 53.0469 20.002 53.4023 19.6739C53.6758 19.4141 53.7305 19.2364 53.7305 18.5391V17.7188L56.7793 14.67L59.8144 11.6075L61.5234 10.7325C63.1367 9.91217 63.3144 9.77546 64.75 8.31256C65.9531 7.10944 66.3086 6.6446 66.4316 6.2071C66.5137 5.89264 66.5547 5.55084 66.5273 5.45514C66.5 5.34576 66.4316 5.07233 66.3769 4.85358C66.2539 4.3067 62.6308 0.615295 61.8652 0.259827C61.1953 -0.0546188 60.498 -0.0682907 59.9512 0.218811ZM63.0273 6.78131C62.0976 7.72467 61.6191 8.08014 60.6484 8.57233L59.4316 9.18756L58.3926 8.1485L57.3672 7.12311L57.9004 5.98834C58.3379 5.086 58.6933 4.59381 59.6777 3.58209L60.8945 2.31061L62.5488 3.9649L64.1894 5.60553L63.0273 6.78131ZM56.7793 9.81647L57.5586 10.5958L55.6445 12.5098L53.7305 14.4239V12.7833V11.1426L54.7832 10.0899C55.3711 9.50202 55.8769 9.0235 55.918 9.0235C55.959 9.0235 56.3418 9.37897 56.7793 9.81647ZM50.1074 18.0469L48.8086 19.3458V17.7051V16.0645L50.0801 14.793L51.3379 13.5352L51.3789 15.1348L51.4199 16.7344L50.1074 18.0469ZM44.9805 23.1602L43.4765 24.6778L42.6562 23.8575L41.8359 23.0372L44.1191 20.754L46.416 18.4571L46.457 20.0567L46.498 21.6563L44.9805 23.1602ZM41.043 25.5255L42.0957 26.5645L40.9883 28.752L39.8945 30.9395L37.789 28.834C36.6269 27.6856 35.6836 26.7012 35.6836 26.6602C35.6836 26.5919 39.7578 24.5001 39.9219 24.4864C39.9492 24.4727 40.4551 24.9376 41.043 25.5255ZM36.1348 30.461L38.5547 32.8809L37.2832 34.1524L36.0254 35.4102L33.5644 32.9493L31.1035 30.4883L32.334 29.2579C33.0039 28.588 33.5918 28.0274 33.6328 28.0274C33.6738 28.0274 34.7949 29.1212 36.1348 30.461ZM33.5644 37.8712L32.7441 38.6915L30.2832 36.2305L27.8223 33.7696L28.6426 32.9493L29.4629 32.129L31.9238 34.5899L34.3848 37.0508L33.5644 37.8712ZM34.043 49.4649C35.3281 54.1544 36.3672 58.0645 36.3672 58.1465C36.3672 58.2423 35.1367 59.5411 33.6328 61.045L30.9121 63.7657L29.709 63.1368C27.2617 61.8653 10.8418 53.3477 9.99413 52.9102L9.11913 52.4727L17.6504 43.9415L26.1816 35.4102L28.9433 38.1856L31.7187 40.9473L34.043 49.4649ZM46.4433 42.4102C47.9746 43.9415 49.2187 45.2403 49.2187 45.3223C49.2187 45.5001 47.8242 46.8946 47.6465 46.8946C47.5781 46.8946 46.2383 45.6231 44.6797 44.0645L41.8359 41.2208L42.6152 40.4415C43.0527 40.004 43.4629 39.6485 43.5449 39.6485C43.6133 39.6485 44.9258 40.8926 46.4433 42.4102ZM12.6328 56.8887C14.9707 58.1055 16.9121 59.1309 16.9394 59.1446C16.9668 59.1719 14.6699 59.1993 11.8398 59.1993H6.67186L6.27538 58.8028C5.94725 58.4747 5.87889 58.2833 5.87889 57.7637C5.87889 57.1622 5.91991 57.0938 7.05467 55.918C7.71092 55.2344 8.27147 54.6876 8.29881 54.6876C8.33983 54.6876 10.2812 55.6856 12.6328 56.8887ZM43.2031 57.3536L44.3652 58.5157L39.7851 63.0958L35.2051 67.6758L33.9746 66.4454L32.7441 65.2149L37.2558 60.7032C39.7305 58.2149 41.8359 56.1915 41.9043 56.1915C41.9863 56.1915 42.5742 56.711 43.2031 57.3536Z" fill="black"/>
<path d="M25.3613 39.5802C24.8008 40.1408 24.8965 40.7423 25.6758 41.549C26.0313 41.9181 26.4961 42.2736 26.7148 42.3283C27.4941 42.5197 28.3008 41.7267 28.1094 40.9611C28.0547 40.756 27.7129 40.2775 27.3438 39.9083C26.5371 39.1017 25.9219 39.006 25.3613 39.5802Z" fill="black"/>
<path d="M22.3535 42.6836C21.916 42.916 21.7383 43.2168 21.7383 43.7227C21.7383 44.3789 22.9824 45.6641 23.625 45.6641C24.2676 45.6641 24.8008 45.1309 24.8008 44.502C24.8008 44.0645 24.6914 43.9004 24.0352 43.2578C23.2422 42.5059 22.9004 42.3828 22.3535 42.6836Z" fill="black"/>
<path d="M27.959 45.4453C27.7402 45.5547 26.5508 46.6348 25.3476 47.8652C23.3652 49.875 23.1191 50.1621 23.0371 50.6816C22.8594 51.8027 23.0234 52.0488 26.5097 55.5625C28.2871 57.3535 29.9277 58.8984 30.1738 59.0078C31.2539 59.4726 32.539 59.0488 33.2773 57.9824C33.9746 56.9844 33.9336 56.7656 32.4023 51.4199C31.6367 48.7539 30.8984 46.4023 30.748 46.1836C30.1738 45.3769 28.875 45.0351 27.959 45.4453ZM30.1875 52.1172C31.1992 55.6582 31.4043 56.5605 31.2676 56.6973C31.1308 56.834 30.5293 56.3144 28.2324 54.0039L25.3613 51.1328L27.0703 49.4238C28.0136 48.4805 28.8066 47.7148 28.8476 47.7148C28.8886 47.7148 29.4902 49.6973 30.1875 52.1172Z" fill="black"/>
<path d="M19.0313 45.9375C18.6211 46.1152 18.2793 46.9082 18.4434 47.332C18.5117 47.5098 18.8672 47.9336 19.25 48.3027C20.043 49.0274 20.5215 49.1231 21.1094 48.6582C21.6699 48.2207 21.6152 47.4688 20.959 46.7442C20.4531 46.1836 19.8516 45.7871 19.5234 45.8145C19.4277 45.8145 19.209 45.8692 19.0313 45.9375Z" fill="black"/>
</g>
<defs>
<clipPath id="clip0_42_61">
<rect width="70" height="70" fill="white"/>
</clipPath>
</defs>
</svg>
