<svg width="80" height="80" viewBox="0 0 80 80" fill="none" xmlns="http://www.w3.org/2000/svg">
<circle cx="40" cy="40" r="39" stroke="white" stroke-width="2"/>
<path d="M24.3906 25.1313C23.7625 25.4031 23.4063 26.1156 23.5469 26.8469C23.6031 27.1656 24.4844 28.075 31.45 35.05C38.425 42.0156 39.3344 42.8969 39.6531 42.9531C40.5344 43.1219 40.0188 43.5719 48.55 35.05C57.0719 26.5281 56.6219 27.0344 56.4531 26.1531C56.3688 25.6938 55.8063 25.1313 55.3469 25.0469C54.4656 24.8781 54.9156 24.4938 47.1438 32.2469L40 39.3906L32.8938 32.2938C28.9188 28.3188 25.6844 25.15 25.5344 25.0938C25.1781 24.9625 24.7375 24.9813 24.3906 25.1313Z" fill="white"/>
<path d="M24.3906 37.1313C23.7625 37.4031 23.4063 38.1156 23.5469 38.8469C23.6031 39.1656 24.4844 40.075 31.45 47.05C38.425 54.0156 39.3344 54.8969 39.6531 54.9531C40.5344 55.1219 40.0188 55.5719 48.55 47.05C57.0719 38.5281 56.6219 39.0344 56.4531 38.1531C56.3688 37.6938 55.8063 37.1313 55.3469 37.0469C54.4656 36.8781 54.9156 36.4938 47.1438 44.2469L40 51.3906L32.8938 44.2938C28.9188 40.3188 25.6844 37.15 25.5344 37.0938C25.1781 36.9625 24.7375 36.9813 24.3906 37.1313Z" fill="white"/>
</svg>
