<svg xmlns="http://www.w3.org/2000/svg">
    <symbol id="phone-call" viewBox="0 0 32 32">
        <path d="M17.3125 0.112504C16.7 0.418755 16.6438 1.2875 17.2188 1.6625C17.3063 1.71875 17.7313 1.84375 18.175 1.94375C19.5125 2.2375 20.175 2.45625 21.375 3C23.0938 3.78125 24.6188 4.8625 26.0375 6.31876C28.0875 8.42501 29.4313 10.95 30.0563 13.8813C30.225 14.675 30.2688 14.775 30.5125 14.9563C30.9063 15.2438 31.3875 15.2188 31.7063 14.8875C31.9938 14.5875 32.0125 14.3938 31.8375 13.5438C30.5875 7.39376 25.9313 2.30625 19.9063 0.506254C19.2188 0.300004 17.8938 4.76837e-06 17.675 4.76837e-06C17.5938 4.76837e-06 17.4313 0.050004 17.3125 0.112504Z"/>
        <path d="M5.24375 1.99375C4.44375 2.25 3.775 2.80625 1.9 4.79375C0.556248 6.2125 0.193748 6.93125 0.068748 8.3625C-0.112502 10.4 0.574998 12.9812 2.09375 15.9687C2.73125 17.2312 3.01875 17.725 3.83125 18.9375C6.89375 23.525 10.9125 27.1812 15.6562 29.7062C18.3437 31.1375 20.6187 31.8687 22.6875 31.975C24.15 32.0562 25.45 31.6437 26.425 30.8C26.5437 30.7 27.2625 29.9812 28.025 29.1937C29.2875 27.9 29.4312 27.725 29.675 27.2437C30.1437 26.3062 30.15 25.4625 29.6812 24.5C29.425 23.9812 29.3625 23.9125 27.1 21.65C24.9062 19.45 24.7562 19.3125 24.3062 19.1C23.35 18.65 22.3687 18.6937 21.4375 19.2312C21.2812 19.325 20.575 19.9687 19.8625 20.675L18.5687 21.95L17.95 21.6187C15.2 20.1687 11.5875 16.5312 10.25 13.8687L10.0062 13.3937L11.2062 12.1812C12.4875 10.8875 12.8 10.5 13.0062 9.9125C13.2812 9.1125 13.225 8.35 12.8312 7.54375C12.625 7.13125 12.4125 6.9 10.2875 4.775C7.86875 2.35625 7.675 2.19375 6.9375 1.975C6.4875 1.84375 5.6875 1.85 5.24375 1.99375ZM6.64375 3.8125C7.03125 3.99375 11.075 8.05625 11.2437 8.4375C11.5687 9.15625 11.4312 9.39375 9.71875 11.0937C8.95 11.85 8.28125 12.5625 8.21875 12.6812C8.04375 13.0312 8.11875 13.6625 8.40625 14.275C9.2125 15.9875 10.5125 17.7125 12.4937 19.6875C14.125 21.3187 15.8 22.575 17.4937 23.4437C18.2 23.8125 18.2937 23.8437 18.65 23.8375C18.8937 23.8375 19.1125 23.7937 19.25 23.725C19.3687 23.6625 20.1 22.9812 20.875 22.2187C21.65 21.4562 22.375 20.7812 22.4937 20.7187C22.8062 20.5625 23.3562 20.6125 23.6687 20.8312C24.1125 21.1375 27.9125 25.0125 28.0625 25.3062C28.2437 25.6687 28.2437 26.0812 28.0625 26.4437C27.925 26.7062 25.9125 28.8187 25.2187 29.4187C24.2187 30.2937 22.8125 30.4 20.5 29.775C18.8125 29.3187 16.2062 28.0562 14.0625 26.6562C9.5 23.6687 5.325 18.8375 3.2125 14.0937C1.85625 11.0437 1.525 8.70625 2.2375 7.25C2.3625 6.9875 2.74375 6.5625 3.84375 5.45C4.75 4.525 5.3875 3.93125 5.5625 3.84375C5.9125 3.65625 6.29375 3.65 6.64375 3.8125Z"/>
        <path d="M17.0125 5.9375C16.5875 6.2 16.4375 6.7625 16.6875 7.16875C16.8625 7.45625 17.0125 7.53125 17.7688 7.71875C19.5 8.14375 20.8938 8.9375 22.075 10.1813C23.1938 11.35 23.95 12.7625 24.2813 14.2813C24.4125 14.8688 24.5 15.0688 24.725 15.2438C25.2313 15.6438 26.0438 15.35 26.1563 14.725C26.25 14.25 25.7813 12.6188 25.2375 11.5375C23.8438 8.725 21.3188 6.7 18.2813 5.9625C17.525 5.78125 17.2813 5.775 17.0125 5.9375Z"/>
    </symbol>
    <symbol id="home" viewBox="0 0 30 30">
        <g clip-path="url(#clip0_44_104)">
        <path d="M15 7.88223L4.30063 16.7027C4.30063 16.7152 4.2975 16.7335 4.29125 16.7584C4.28512 16.7832 4.28186 16.8012 4.28186 16.814V25.7456C4.28186 26.0681 4.39976 26.3476 4.6355 26.5829C4.87117 26.8184 5.15025 26.9369 5.47281 26.9369H12.618V19.7914H17.3821V26.9372H24.5272C24.8496 26.9372 25.1291 26.8189 25.3645 26.5829C25.6002 26.3478 25.7185 26.0682 25.7185 25.7456V16.814C25.7185 16.7644 25.7117 16.727 25.6997 16.7027L15 7.88223Z"/>
        <path d="M29.793 14.693L25.7182 11.3063V3.71427C25.7182 3.54071 25.6624 3.39797 25.5504 3.28626C25.4393 3.17468 25.2966 3.11889 25.1227 3.11889H21.55C21.3763 3.11889 21.2336 3.17468 21.1218 3.28626C21.0103 3.39797 20.9546 3.54077 20.9546 3.71427V7.34277L16.4143 3.54664C16.0178 3.22409 15.5463 3.06284 15.0004 3.06284C14.4546 3.06284 13.9832 3.22409 13.5863 3.54664L0.206772 14.693C0.0827436 14.792 0.0147659 14.9254 0.00212194 15.0929C-0.0104569 15.2602 0.0328846 15.4064 0.132277 15.5304L1.28594 16.9074C1.38533 17.019 1.51542 17.0872 1.67673 17.1122C1.82566 17.1247 1.97458 17.0812 2.12351 16.982L15 6.24489L27.8767 16.9819C27.9762 17.0685 28.1062 17.1117 28.2675 17.1117H28.3234C28.4845 17.0872 28.6143 17.0185 28.7142 16.9072L29.868 15.5303C29.9672 15.4061 30.0107 15.2602 29.9978 15.0926C29.985 14.9256 29.9168 14.7922 29.793 14.693Z"/>
        </g>
    </symbol>
    <symbol id="telegram" viewBox="0 0 256 256">
        <g>
            <path d="M128,0 C57.307,0 0,57.307 0,128 L0,128 C0,198.693 57.307,256 128,256 L128,256 C198.693,256 256,198.693 256,128 L256,128 C256,57.307 198.693,0 128,0 L128,0 Z" fill="#40B3E0"></path>
            <path d="M190.2826,73.6308 L167.4206,188.8978 C167.4206,188.8978 164.2236,196.8918 155.4306,193.0548 L102.6726,152.6068 L83.4886,143.3348 L51.1946,132.4628 C51.1946,132.4628 46.2386,130.7048 45.7586,126.8678 C45.2796,123.0308 51.3546,120.9528 51.3546,120.9528 L179.7306,70.5928 C179.7306,70.5928 190.2826,65.9568 190.2826,73.6308" fill="#FFFFFF"></path>
            <path d="M98.6178,187.6035 C98.6178,187.6035 97.0778,187.4595 95.1588,181.3835 C93.2408,175.3085 83.4888,143.3345 83.4888,143.3345 L161.0258,94.0945 C161.0258,94.0945 165.5028,91.3765 165.3428,94.0945 C165.3428,94.0945 166.1418,94.5735 163.7438,96.8115 C161.3458,99.0505 102.8328,151.6475 102.8328,151.6475" fill="#D2E5F1"></path>
            <path d="M122.9015,168.1154 L102.0335,187.1414 C102.0335,187.1414 100.4025,188.3794 98.6175,187.6034 L102.6135,152.2624" fill="#B5CFE4"></path>
		</g>
    </symbol>
    <symbol id="viber" viewBox="0 0 512 512">
        <circle style="fill:#6F3FAA;" cx="256" cy="256" r="256"/>
        <path style="fill:#512D84;" d="M367.061,140.443c-62.312-15.05-124.735-32.654-188.637-10.288
            c-41.374,15.515-41.374,60.337-39.65,98.263c0,10.343-12.067,24.135-6.896,36.202c10.343,34.478,18.963,68.956,55.165,86.195
            c5.172,3.448,0,10.343,3.448,15.515c-1.724,0-5.172,1.724-5.172,3.448c0,8.263,3.708,20.902,1.245,29.05L296.57,508.788
            c113.09-18.01,201.478-110.068,213.914-224.921L367.061,140.443z"/>
        <g>
            <path style="fill:#FFFFFF;" d="M391.427,179.924l-0.084-0.338c-6.84-27.653-37.678-57.325-65.998-63.498l-0.319-0.066
                c-45.806-8.738-92.251-8.738-138.047,0l-0.329,0.066c-28.31,6.173-59.149,35.847-65.998,63.498l-0.076,0.338
                c-8.456,38.617-8.456,77.781,0,116.398l0.076,0.338c6.558,26.472,35.099,54.782,62.362,62.567v30.868
                c0,11.173,13.615,16.66,21.357,8.597l31.275-32.509c6.784,0.379,13.571,0.591,20.356,0.591c23.057,0,46.125-2.181,69.023-6.549
                l0.319-0.066c28.32-6.173,59.158-35.847,65.998-63.498l0.084-0.338C399.882,257.705,399.882,218.543,391.427,179.924z
                M366.676,290.723c-4.567,18.041-27.981,40.469-46.585,44.613c-24.355,4.632-48.904,6.611-73.428,5.932
                c-0.488-0.014-0.957,0.176-1.296,0.526c-3.481,3.572-22.835,23.442-22.835,23.442l-24.288,24.928
                c-1.776,1.852-4.896,0.591-4.896-1.964v-51.136c0-0.845-0.603-1.562-1.433-1.726c-0.005-0.002-0.009-0.002-0.014-0.003
                c-18.604-4.144-42.01-26.572-46.585-44.613c-7.611-34.906-7.611-70.292,0-105.198c4.575-18.041,27.981-40.469,46.585-44.613
                c42.536-8.09,85.664-8.09,128.191,0c18.613,4.144,42.018,26.572,46.585,44.613C374.296,220.431,374.296,255.817,366.676,290.723z"
                />
            <path style="fill:#FFFFFF;" d="M296.47,314.327c-2.86-0.869-5.585-1.452-8.118-2.501c-26.231-10.883-50.371-24.923-69.492-46.444
                c-10.874-12.238-19.385-26.055-26.579-40.677c-3.412-6.934-6.287-14.139-9.218-21.299c-2.672-6.528,1.264-13.272,5.408-18.192
                c3.889-4.617,8.894-8.149,14.314-10.754c4.23-2.032,8.402-0.86,11.492,2.725c6.678,7.752,12.814,15.9,17.78,24.886
                c3.055,5.527,2.217,12.283-3.32,16.044c-1.346,0.914-2.572,1.988-3.825,3.02c-1.1,0.905-2.134,1.819-2.888,3.044
                c-1.377,2.241-1.443,4.886-0.557,7.323c6.827,18.761,18.334,33.351,37.219,41.21c3.022,1.257,6.056,2.72,9.538,2.315
                c5.83-0.681,7.718-7.077,11.804-10.418c3.993-3.265,9.097-3.308,13.398-0.586c4.303,2.724,8.473,5.646,12.619,8.601
                c4.07,2.9,8.121,5.735,11.874,9.042c3.61,3.179,4.853,7.349,2.82,11.662c-3.72,7.901-9.135,14.472-16.944,18.668
                C301.59,313.178,298.956,313.561,296.47,314.327C293.61,313.458,298.956,313.561,296.47,314.327z"/>
            <path style="fill:#FFFFFF;" d="M256.071,165.426c34.309,0.962,62.49,23.731,68.529,57.651c1.029,5.78,1.395,11.688,1.853,17.555
                c0.193,2.467-1.205,4.811-3.867,4.844c-2.75,0.033-3.987-2.269-4.167-4.734c-0.353-4.882-0.598-9.787-1.271-14.627
                c-3.551-25.559-23.931-46.704-49.371-51.241c-3.829-0.683-7.745-0.862-11.624-1.269c-2.451-0.257-5.661-0.405-6.204-3.453
                c-0.455-2.555,1.701-4.589,4.134-4.72C254.742,165.393,255.407,165.424,256.071,165.426
                C290.382,166.388,255.407,165.424,256.071,165.426z"/>
            <path style="fill:#FFFFFF;" d="M308.212,233.019c-0.057,0.429-0.086,1.436-0.338,2.384c-0.91,3.444-6.134,3.875-7.335,0.4
                c-0.357-1.031-0.41-2.205-0.412-3.315c-0.012-7.266-1.591-14.526-5.256-20.849c-3.767-6.499-9.523-11.96-16.272-15.267
                c-4.082-1.998-8.495-3.241-12.969-3.98c-1.955-0.324-3.931-0.519-5.896-0.793c-2.381-0.331-3.653-1.848-3.539-4.194
                c0.105-2.198,1.712-3.781,4.108-3.644c7.873,0.446,15.479,2.15,22.48,5.856c14.234,7.539,22.366,19.437,24.74,35.326
                c0.107,0.721,0.279,1.433,0.334,2.155C307.991,228.88,308.076,230.665,308.212,233.019
                C308.155,233.446,308.076,230.665,308.212,233.019z"/>
            <path style="fill:#FFFFFF;" d="M286.872,232.188c-2.87,0.052-4.406-1.538-4.703-4.168c-0.205-1.834-0.369-3.694-0.807-5.48
                c-0.862-3.517-2.731-6.775-5.689-8.93c-1.396-1.017-2.979-1.758-4.636-2.238c-2.105-0.609-4.293-0.441-6.392-0.955
                c-2.281-0.559-3.543-2.407-3.184-4.546c0.326-1.948,2.22-3.468,4.349-3.313c13.302,0.96,22.809,7.837,24.166,23.497
                c0.097,1.105,0.209,2.272-0.036,3.331C289.518,231.193,288.178,232.1,286.872,232.188
                C284.001,232.239,288.178,232.1,286.872,232.188z"/>
        </g>
        <path style="fill:#D1D1D1;" d="M391.427,179.924l-0.084-0.338c-3.834-15.501-15.212-31.635-29.458-43.911l-19.259,17.068
            c11.452,9.125,21.264,21.766,24.052,32.78c7.62,34.907,7.62,70.292,0,105.2c-4.567,18.041-27.982,40.469-46.585,44.613
            c-24.355,4.632-48.904,6.611-73.428,5.932c-0.488-0.014-0.957,0.176-1.296,0.526c-3.481,3.572-22.835,23.442-22.835,23.442
            l-24.288,24.928c-1.776,1.852-4.896,0.593-4.896-1.964v-51.136c0-0.845-0.603-1.562-1.433-1.726c-0.005,0-0.009-0.002-0.014-0.002
            c-10.573-2.355-22.692-10.618-32.028-20.621l-19.03,16.863c11.885,12.929,27.214,23.381,42.168,27.651v30.868
            c0,11.173,13.615,16.66,21.357,8.597l31.275-32.509c6.784,0.379,13.569,0.591,20.356,0.591c23.057,0,46.125-2.181,69.023-6.549
            l0.319-0.065c28.32-6.173,59.158-35.845,65.998-63.498l0.084-0.338C399.882,257.705,399.882,218.543,391.427,179.924z"/>
        <path style="fill:#FFFFFF;" d="M296.47,314.327C298.956,313.561,293.61,313.458,296.47,314.327L296.47,314.327z"/>
        <path style="fill:#D1D1D1;" d="M317.921,281.664c-3.753-3.305-7.806-6.142-11.874-9.042c-4.146-2.955-8.316-5.877-12.619-8.601
            c-4.301-2.722-9.404-2.679-13.398,0.586c-4.086,3.341-5.973,9.737-11.804,10.418c-3.481,0.405-6.516-1.059-9.538-2.315
            c-11.619-4.834-20.435-12.226-27.098-21.559l-14.16,12.55c0.481,0.557,0.94,1.129,1.429,1.679
            c19.122,21.521,43.263,35.561,69.492,46.444c2.531,1.05,5.258,1.634,8.118,2.501c-2.86-0.869,2.488-0.765,0,0
            c2.488-0.765,5.12-1.15,7.327-2.332c7.811-4.196,13.224-10.768,16.944-18.668C322.774,289.013,321.531,284.843,317.921,281.664z"/>
        <g>
            <path style="fill:#FFFFFF;" d="M256.159,165.431c-0.029,0-0.057-0.003-0.086-0.003
                C256.045,165.426,256.081,165.428,256.159,165.431z"/>
            <path style="fill:#FFFFFF;" d="M256.072,165.426c0.029,0,0.057,0.003,0.086,0.003C258.062,165.497,289.03,166.35,256.072,165.426z"
                />
        </g>
        <g>
            <path style="fill:#D1D1D1;" d="M305.285,185.837l-6.037,5.351c9.487,9.23,16.029,21.463,17.899,34.925
                c0.672,4.842,0.919,9.745,1.272,14.627c0.179,2.467,1.415,4.768,4.167,4.736c2.663-0.033,4.06-2.376,3.867-4.844
                c-0.459-5.866-0.824-11.776-1.853-17.555C321.957,208.229,315.07,195.518,305.285,185.837z"/>
            <path style="fill:#D1D1D1;" d="M307.521,224.939c-1.729-11.578-6.532-21.026-14.51-28.224l-6.02,5.335
                c3.113,2.763,5.806,6.008,7.88,9.587c3.665,6.323,5.244,13.583,5.256,20.849c0.002,1.11,0.055,2.284,0.412,3.317
                c1.203,3.477,6.425,3.046,7.335-0.4c0.252-0.95,0.281-1.957,0.338-2.384c-0.057,0.429-0.138-2.353,0,0
                c-0.138-2.353-0.222-4.139-0.357-5.923C307.802,226.371,307.629,225.659,307.521,224.939z"/>
        </g>
        <g>
            <path style="fill:#FFFFFF;" d="M308.212,233.019C308.076,230.665,308.155,233.446,308.212,233.019L308.212,233.019z"/>
            <path style="fill:#FFFFFF;" d="M286.872,232.188c0.045-0.003,0.088-0.026,0.131-0.031c-0.121,0-0.307,0.003-0.498,0.01
                C286.629,232.17,286.742,232.189,286.872,232.188z"/>
            <path style="fill:#FFFFFF;" d="M286.872,232.188c-0.129,0.002-0.243-0.017-0.367-0.021
                C285.884,232.184,285.243,232.217,286.872,232.188z"/>
            <path style="fill:#FFFFFF;" d="M287.003,232.157c-0.045,0.005-0.088,0.028-0.131,0.031
                C287.208,232.165,287.179,232.157,287.003,232.157z"/>
        </g>
        <path style="fill:#D1D1D1;" d="M280.814,207.525l-6.128,5.432c0.338,0.205,0.669,0.419,0.99,0.652
            c2.958,2.155,4.827,5.413,5.689,8.93c0.438,1.786,0.6,3.644,0.807,5.48c0.283,2.513,1.71,4.058,4.336,4.148
            c0.191-0.005,0.379-0.009,0.498-0.01c1.264-0.14,2.531-1.026,2.936-2.774c0.245-1.057,0.133-2.226,0.036-3.331
            C289.216,217.297,285.906,211.29,280.814,207.525z"/>
    </symbol>
    <symbol id="whatsapp" viewBox="0 0 48 48">
        <path d="M24 48C37.2548 48 48 37.2548 48 24C48 10.7452 37.2548 0 24 0C10.7452 0 0 10.7452 0 24C0 37.2548 10.7452 48 24 48Z" fill="#25D366"/>
        <path fill-rule="evenodd" clip-rule="evenodd" d="M24.7911 37.3525H24.7852C22.3967 37.3517 20.0498 36.7524 17.9653 35.6154L10.4 37.6L12.4246 30.2048C11.1757 28.0405 10.5186 25.5855 10.5196 23.0702C10.5228 15.2017 16.9248 8.79999 24.7909 8.79999C28.6086 8.80164 32.1918 10.2879 34.8862 12.9854C37.5806 15.6828 39.0636 19.2683 39.0621 23.0815C39.059 30.9483 32.6595 37.3493 24.7911 37.3525ZM18.3159 33.0319L18.749 33.2889C20.5702 34.3697 22.6578 34.9415 24.7863 34.9423H24.7911C31.3288 34.9423 36.6499 29.6211 36.6525 23.0807C36.6538 19.9112 35.4212 16.9311 33.1817 14.689C30.9422 12.4469 27.964 11.2115 24.7957 11.2104C18.2529 11.2104 12.9318 16.5311 12.9292 23.0711C12.9283 25.3124 13.5554 27.4951 14.7427 29.3836L15.0248 29.8324L13.8265 34.2095L18.3159 33.0319ZM31.4924 26.154C31.7411 26.2742 31.9091 26.3554 31.9808 26.4751C32.0699 26.6238 32.0699 27.3378 31.7729 28.1708C31.4756 29.0038 30.051 29.764 29.3659 29.8663C28.7516 29.9582 27.9741 29.9965 27.1199 29.725C26.602 29.5607 25.9379 29.3413 25.0871 28.9739C21.7442 27.5304 19.485 24.2904 19.058 23.678C19.0281 23.6351 19.0072 23.6051 18.9955 23.5895L18.9927 23.5857C18.804 23.3339 17.5395 21.6468 17.5395 19.9008C17.5395 18.2582 18.3463 17.3973 18.7177 17.001C18.7432 16.9739 18.7666 16.9489 18.7875 16.926C19.1144 16.569 19.5007 16.4797 19.7384 16.4797C19.9761 16.4797 20.2141 16.4819 20.4219 16.4924C20.4475 16.4937 20.4742 16.4935 20.5017 16.4933C20.7095 16.4921 20.9686 16.4906 21.2242 17.1045C21.3225 17.3407 21.4664 17.691 21.6181 18.0604C21.9249 18.8074 22.264 19.6328 22.3236 19.7522C22.4128 19.9307 22.4722 20.1389 22.3533 20.3769C22.3355 20.4126 22.319 20.4463 22.3032 20.4785C22.2139 20.6608 22.1483 20.7948 21.9967 20.9718C21.9372 21.0413 21.8756 21.1163 21.814 21.1913C21.6913 21.3407 21.5687 21.4901 21.4619 21.5965C21.2833 21.7743 21.0975 21.9672 21.3055 22.3242C21.5135 22.6812 22.2292 23.8489 23.2892 24.7945C24.4288 25.8109 25.4192 26.2405 25.9212 26.4582C26.0192 26.5008 26.0986 26.5352 26.1569 26.5644C26.5133 26.7429 26.7213 26.713 26.9294 26.4751C27.1374 26.2371 27.8208 25.4338 28.0584 25.0769C28.2961 24.7201 28.5339 24.7795 28.8607 24.8984C29.1877 25.0176 30.9408 25.8801 31.2974 26.0586C31.367 26.0934 31.4321 26.1249 31.4924 26.154Z" fill="#FDFDFD"/>
    </symbol>
    <symbol id="car" viewBox="0 0 60 60">
        <g clip-path="url(#clip0_9_46)">
            <path d="M41.7709 39.6699H22.148C21.6742 39.6699 21.2897 39.2853 21.2897 38.8115C21.2897 38.3377 21.6742 37.9532 22.148 37.9532H41.7709C42.2447 37.9532 42.6292 38.3377 42.6292 38.8115C42.6292 39.2853 42.2447 39.6699 41.7709 39.6699Z"/>
            <path d="M17.4805 44.3391C14.4317 44.3391 11.9512 41.8603 11.9512 38.8098C11.9512 35.7593 14.43 33.2805 17.4805 33.2805C20.5275 33.2805 23.008 35.7593 23.008 38.8098C23.008 41.8603 20.5275 44.3391 17.4805 44.3391ZM17.4805 34.9989C15.3776 34.9989 13.6678 36.7086 13.6678 38.8115C13.6678 40.9144 15.3776 42.6242 17.4805 42.6242C19.5816 42.6242 21.2914 40.9144 21.2914 38.8115C21.2914 36.7086 19.5799 34.9989 17.4805 34.9989Z"/>
            <path d="M46.4419 44.3391C43.3931 44.3391 40.9126 41.8603 40.9126 38.8098C40.9126 35.7593 43.3914 33.2805 46.4419 33.2805C49.4924 33.2805 51.9712 35.7593 51.9712 38.8098C51.9712 41.8603 49.4906 44.3391 46.4419 44.3391ZM46.4419 34.9989C44.339 34.9989 42.6292 36.7086 42.6292 38.8115C42.6292 40.9144 44.339 42.6242 46.4419 42.6242C48.5448 42.6242 50.2546 40.9144 50.2546 38.8115C50.2546 36.7086 48.5431 34.9989 46.4419 34.9989Z"/>
            <path d="M41.7779 39.6699H22.1515C21.6777 39.6699 21.2932 39.2853 21.2932 38.8115C21.2932 38.3377 21.6777 37.9532 22.1515 37.9532H41.7779C42.2517 37.9532 42.6362 38.3377 42.6362 38.8115C42.6362 39.2853 42.2517 39.6699 41.7779 39.6699Z"/>
            <path d="M55.233 39.6698H51.1079C50.6341 39.6698 50.2496 39.2853 50.2496 38.8115C50.2496 38.3377 50.6341 37.9532 51.1079 37.9532H55.233C56.2956 37.9532 57.1865 37.191 57.3496 36.1404L58.2646 30.2815C58.3281 29.8713 58.2268 29.4627 57.9745 29.1314C57.7238 28.8018 57.3616 28.5924 56.9479 28.5409L45.5134 27.147C45.3486 27.1264 45.1924 27.0594 45.0653 26.953L34.7294 18.2651C34.0479 17.6917 33.181 17.3758 32.2884 17.3758H16.1194C15.3211 17.3758 14.5881 17.7775 14.1572 18.4505L9.32489 26.0123C9.21674 26.1856 9.04679 26.3127 8.8511 26.371L3.01452 28.1306C2.14762 28.3915 1.60173 29.2619 1.74077 30.1579L2.55789 35.392C2.78964 36.8734 4.04622 37.9498 5.54656 37.9498H12.8062C13.28 37.9498 13.6646 38.3343 13.6646 38.8081C13.6646 39.2819 13.28 39.6664 12.8062 39.6664H5.54313C3.19133 39.6664 1.21892 37.9807 0.858421 35.6563L0.0413006 30.4223C-0.228212 28.6851 0.834388 26.9942 2.51498 26.4878L8.04943 24.8192L12.7118 17.5235C13.4586 16.3579 14.7323 15.6609 16.1194 15.6609H32.2918C33.5862 15.6609 34.8445 16.1193 35.835 16.9518L45.9752 25.4749L57.1573 26.838C58.0363 26.9461 58.8122 27.3907 59.3443 28.0963C59.8782 28.8001 60.0962 29.6704 59.9606 30.5459L59.0456 36.4048C58.7521 38.2965 57.147 39.6698 55.233 39.6698Z"/>
            <path d="M36.324 27.8164H16.6376C16.1638 27.8164 15.7793 27.4319 15.7793 26.9581C15.7793 26.4843 16.1638 26.0998 16.6376 26.0998H36.324C36.7978 26.0998 37.1824 26.4843 37.1824 26.9581C37.1824 27.4319 36.7978 27.8164 36.324 27.8164Z"/>
        </g>
    </symbol>
    <symbol id="time" viewBox="0 0 60 60">
        <path d="M30 54.375C25.1791 54.375 20.4664 52.9454 16.458 50.2671C12.4495 47.5887 9.32533 43.7819 7.48045 39.3279C5.63556 34.874 5.15285 29.973 6.09337 25.2447C7.03388 20.5164 9.35538 16.1732 12.7643 12.7643C16.1732 9.35538 20.5164 7.03388 25.2447 6.09337C29.973 5.15285 34.874 5.63556 39.3279 7.48045C43.7819 9.32533 47.5887 12.4495 50.2671 16.458C52.9454 20.4664 54.375 25.1791 54.375 30C54.375 36.4647 51.8069 42.6645 47.2357 47.2357C42.6645 51.8069 36.4647 54.375 30 54.375ZM30 9.37501C25.9208 9.37501 21.9331 10.5846 18.5414 12.8509C15.1496 15.1173 12.5061 18.3384 10.945 22.1072C9.38394 25.8759 8.97549 30.0229 9.77131 34.0238C10.5671 38.0246 12.5315 41.6996 15.4159 44.5841C18.3004 47.4685 21.9754 49.4329 25.9763 50.2287C29.9771 51.0245 34.1241 50.6161 37.8929 49.055C41.6616 47.494 44.8828 44.8504 47.1491 41.4586C49.4154 38.0669 50.625 34.0793 50.625 30C50.625 24.5299 48.452 19.2839 44.5841 15.4159C40.7162 11.548 35.4701 9.37501 30 9.37501Z"/>
        <path d="M40.3125 42.1875C40.0658 42.1889 39.8212 42.1416 39.5927 42.0483C39.3643 41.955 39.1565 41.8175 38.9813 41.6437L28.6688 31.3312C28.495 31.156 28.3575 30.9483 28.2642 30.7198C28.1709 30.4914 28.1236 30.2468 28.125 30V15C28.125 14.5027 28.3226 14.0258 28.6742 13.6742C29.0258 13.3225 29.5028 13.125 30 13.125C30.4973 13.125 30.9742 13.3225 31.3259 13.6742C31.6775 14.0258 31.875 14.5027 31.875 15V29.2313L41.6438 38.9813C41.8195 39.1556 41.959 39.3629 42.0542 39.5914C42.1494 39.8199 42.1984 40.065 42.1984 40.3125C42.1984 40.56 42.1494 40.8051 42.0542 41.0336C41.959 41.2621 41.8195 41.4694 41.6438 41.6437C41.4686 41.8175 41.2608 41.955 41.0324 42.0483C40.8039 42.1416 40.5593 42.1889 40.3125 42.1875Z"/>
    </symbol>
    <symbol id="document" viewBox="0 0 60 60">
        <path d="M19.711 6.01173C19.1953 6.1758 18.3633 6.9258 18.0938 7.46486C17.8828 7.88673 17.8711 8.39064 17.8125 15.7735L17.7539 23.6367L14.4141 20.543C12.5742 18.8438 10.9219 17.3438 10.7227 17.2149C10.2774 16.9336 9.53908 16.9336 9.07033 17.2149L8.69533 17.4375L8.30861 17.1211C7.72267 16.6406 7.45314 16.5235 6.91408 16.5235C6.07033 16.5235 5.33205 17.0508 4.82814 18.0117C4.50002 18.6328 4.71096 19.5117 5.35549 20.1797L5.77736 20.6133L5.57814 21.0117C5.34377 21.5156 5.34377 21.8086 5.55471 22.3008C5.66017 22.5586 7.71096 24.5274 11.7539 28.2539L17.8008 33.8086L17.8125 42.6445C17.8125 49.2188 17.8477 51.5977 17.9531 51.961C18.1406 52.6055 19.1133 53.5781 19.7578 53.7656C20.1328 53.8711 24.0938 53.9063 36.586 53.9063C55.0664 53.9063 53.6133 53.9766 54.5274 52.9688C54.8086 52.6641 55.1016 52.1953 55.1719 51.9375C55.2774 51.586 55.3125 47.0274 55.3125 33.3867V15.293L50.5899 10.582L45.8789 5.85939L32.9883 5.87111C24.3164 5.88283 19.9688 5.91798 19.711 6.01173ZM44.5313 11.8945V16.0664L44.8242 16.3477L45.1055 16.6406H49.2774H53.4375V34.043V51.457L53.1445 51.7383L52.8633 52.0313H36.5625H20.2617L19.9805 51.7383L19.6875 51.457V43.5352V35.6016L20.1328 36C20.3906 36.211 22.8516 38.4727 25.6172 41.0274C28.3828 43.582 30.75 45.7266 30.8789 45.7852C31.1953 45.961 37.3945 47.5781 37.7227 47.5781C37.875 47.5781 38.0274 47.461 38.1094 47.2852C38.2149 47.0391 38.086 46.5586 37.1016 43.7461C36.4688 41.9531 35.8711 40.3828 35.7656 40.2656C35.6485 40.1485 31.9922 36.75 27.6328 32.7305L19.6875 25.4063V16.8633V8.30861L19.9805 8.02736L20.2617 7.73439H32.4024H44.5313V11.8945ZM49.2774 11.9531L52.0899 14.7656H49.2422H46.4063V11.9531C46.4063 10.4063 46.418 9.14064 46.4414 9.14064C46.4531 9.14064 47.7305 10.4063 49.2774 11.9531ZM7.44142 18.8672C7.82814 19.2656 7.8633 19.3477 7.73439 19.5117C7.59377 19.6758 7.52346 19.6406 7.07814 19.207C6.69142 18.8203 6.59767 18.668 6.70314 18.5508C6.87892 18.3281 6.93752 18.3516 7.44142 18.8672ZM20.9883 29.1563C26.7539 34.4649 31.4766 38.836 31.4883 38.8828C31.5117 38.9297 30.961 39.5625 30.2578 40.2891L29.0039 41.6133L18.5156 31.9453C12.75 26.625 8.01564 22.2305 7.99221 22.1719C7.95705 22.043 10.3242 19.4297 10.4414 19.4766C10.4766 19.5 15.2344 23.8477 20.9883 29.1563ZM34.9336 43.2539C35.2969 44.2852 35.5664 45.1172 35.5313 45.1172C35.4961 45.1172 34.6524 44.9063 33.6445 44.6367C31.8985 44.1797 31.793 44.1328 31.1485 43.5703C30.7735 43.2539 30.4688 42.9375 30.4688 42.8789C30.4688 42.8203 31.0313 42.1992 31.711 41.4844L32.9531 40.1953L33.6211 40.793C34.2656 41.3906 34.2891 41.4375 34.9336 43.2539Z"/>
        <path d="M26.3086 22.793C26.1211 22.9688 26.0156 23.2148 26.0156 23.4375C26.0156 23.6602 26.1211 23.9062 26.3086 24.082L26.5898 24.375H37.1484H47.707L47.9883 24.082C48.1758 23.9062 48.2812 23.6602 48.2812 23.4375C48.2812 23.2148 48.1758 22.9688 47.9883 22.793L47.707 22.5H37.1484H26.5898L26.3086 22.793Z"/>
        <path d="M26.3086 27.4805C26.1211 27.6562 26.0156 27.9023 26.0156 28.125C26.0156 28.3477 26.1211 28.5938 26.3086 28.7695L26.5898 29.0625H37.1484H47.707L47.9883 28.7695C48.1758 28.5938 48.2812 28.3477 48.2812 28.125C48.2812 27.9023 48.1758 27.6562 47.9883 27.4805L47.707 27.1875H37.1484H26.5898L26.3086 27.4805Z"/>
        <path d="M30.9961 32.168C30.8086 32.3438 30.7031 32.5898 30.7031 32.8125C30.7031 33.0352 30.8086 33.2812 30.9961 33.457L31.2773 33.75H39.4922H47.707L47.9883 33.457C48.1758 33.2812 48.2812 33.0352 48.2812 32.8125C48.2812 32.5898 48.1758 32.3438 47.9883 32.168L47.707 31.875H39.4922H31.2773L30.9961 32.168Z"/>
        <path d="M35.6836 36.8555C35.4961 37.0312 35.3906 37.2773 35.3906 37.5C35.3906 37.7227 35.4961 37.9688 35.6836 38.1445L35.9648 38.4375H41.8359H47.707L47.9883 38.1445C48.1758 37.9688 48.2812 37.7227 48.2812 37.5C48.2812 37.2773 48.1758 37.0312 47.9883 36.8555L47.707 36.5625H41.8359H35.9648L35.6836 36.8555Z"/>
        <path d="M40.3711 46.2305C40.1836 46.4062 40.0781 46.6523 40.0781 46.875C40.0781 47.0977 40.1836 47.3438 40.3711 47.5195L40.6523 47.8125H44.1797H47.707L47.9883 47.5195C48.1758 47.3438 48.2812 47.0977 48.2812 46.875C48.2812 46.6523 48.1758 46.4062 47.9883 46.2305L47.707 45.9375H44.1797H40.6523L40.3711 46.2305Z"/>
    </symbol>
    <symbol id="card" viewBox="0 0 60 60">
        <g clip-path="url(#clip0_9_105)">
            <path d="M23.9063 10.8633C23.3555 10.957 22.3594 11.3789 21.8555 11.7188C21.5742 11.9062 21.0352 12.4102 20.6602 12.832L19.9688 13.5938L19.4063 13.4062C19.0078 13.2656 18.5859 13.2305 17.918 13.2656C16.6172 13.3477 15.6563 13.8398 14.0742 15.2578C12.1758 16.9688 8.4961 19.7461 2.63672 23.9062C0.468755 25.4414 0.164068 25.6992 0.0585991 26.0977C-0.117182 26.8008 0.457037 27.5391 1.17188 27.5391C1.66407 27.5391 1.72266 27.5039 4.27735 25.6758C10.6055 21.1641 13.793 18.7617 15.3633 17.3086C17.0625 15.7617 17.7539 15.4336 18.7266 15.6914L19.2188 15.832V23.25V30.6797L18.3281 31.0664C17.8359 31.2773 17.3086 31.6055 17.1563 31.793C16.4531 32.6367 17.2266 33.8906 18.293 33.6445C18.7031 33.5391 25.6641 30.375 29.8828 28.3594C32.5078 27.1055 33.3399 26.7891 34.4649 26.6133C36.1758 26.332 37.1484 27.2109 37.1719 29.0391C37.1719 29.7305 37.1133 29.9766 36.7969 30.6328C36.3399 31.5469 35.4141 32.5547 34.3711 33.2578C32.9063 34.2422 29.8594 35.6953 27.832 36.375C27.3164 36.5391 26.9766 36.8203 25.4883 38.332C21.8086 42.0352 20.7891 42.7266 18.1289 43.3008C17.6016 43.418 14.5898 43.6289 10.0195 43.8867C0.960943 44.3906 0.773443 44.4141 0.375005 44.8125C-0.0937446 45.2695 -0.0585884 45.9609 0.445318 46.418C0.914068 46.8398 0.667974 46.8398 7.11329 46.4648C9.86719 46.3125 13.2305 46.125 14.5781 46.0547C15.9258 45.9961 17.5078 45.8555 18.0938 45.75C18.9844 45.5977 20.5313 45.1523 21.2109 44.8477C21.3398 44.7891 21.4688 44.918 21.6797 45.3164C22.0898 46.0781 22.7578 46.5703 23.7891 46.8164C25.1953 47.1563 26.8008 46.8867 27.9492 46.1016C28.1953 45.9375 28.3945 45.8203 28.4063 45.8438C28.4297 45.8672 28.5469 46.0664 28.6875 46.2891C29.2734 47.2734 30.4102 47.9648 31.8047 48.1758C33.1992 48.3984 34.4531 47.9883 35.8242 46.875L36.5625 46.2773L36.9375 46.4883C37.2422 46.6523 37.5938 46.6992 38.5547 46.6992C39.7266 46.6992 39.832 46.6758 40.5938 46.3008C42.4922 45.375 43.8984 43.043 44.2266 40.2773L44.3086 39.6094H49.7461C53.2969 39.6094 55.3945 39.5625 55.8047 39.4805C57.7852 39.0586 59.4492 37.3945 59.8711 35.4141C60.0352 34.5938 60.0469 16.2539 59.8828 15.3398C59.4844 13.1953 57.4688 11.2617 55.2422 10.8984C54.5742 10.7812 24.5391 10.7578 23.9063 10.8633ZM55.6172 13.5234C56.7656 14.0625 57.5274 15.1172 57.5391 16.1953V16.7578H39.5391H21.5391L21.6211 16.2539C21.7969 15.082 22.8633 13.6992 23.8125 13.3945C24.082 13.3008 29.0625 13.2656 39.6094 13.2539L55.0195 13.2422L55.6172 13.5234ZM57.5391 28.2656C57.5391 34.7578 57.5274 34.9922 57.293 35.5078C57 36.1406 56.8008 36.3867 56.1914 36.7852L55.7227 37.0898L44.0625 37.125L32.4024 37.1484L33.8086 36.375C36.9024 34.6758 38.3906 33.2227 39.2227 31.0781C39.4922 30.4102 39.5391 30.1055 39.5391 29.0039C39.5508 27.75 39.5391 27.6914 39.1289 26.8242C38.5664 25.6641 38.0039 25.0547 37.0547 24.5859C36.3164 24.2227 36.2109 24.1992 35.0391 24.2109C33.3047 24.2227 31.7695 24.7148 28.8516 26.1797C27.8438 26.6953 21.7031 29.5312 21.6094 29.5312C21.5273 29.5312 21.5625 21.7266 21.6445 21.6445C21.6797 21.5977 29.7773 21.5625 39.6328 21.5625H57.5391V28.2656ZM28.4297 39.8086C28.4063 39.9258 28.3125 40.6406 28.2305 41.3906L28.0898 42.7617L27.5039 43.3594C26.6836 44.168 25.9219 44.5313 25.0313 44.5313C24.1758 44.5313 23.7891 44.3555 23.6367 43.9102C23.543 43.6055 23.6367 43.5 25.5703 41.6016C27.4805 39.7266 27.6211 39.6094 28.043 39.6094C28.418 39.6094 28.4883 39.6445 28.4297 39.8086ZM35.3555 39.8672C35.1914 40.5469 35.0156 42.7852 35.0859 43.4297L35.1563 44.1445L34.5703 44.7539C33.6445 45.7266 32.7188 46.0195 31.6289 45.6914C31.0313 45.5039 30.7031 45.1289 30.5156 44.4023C30.375 43.8633 30.3867 43.5469 30.6094 41.707L30.8672 39.6094H33.1406H35.4141L35.3555 39.8672ZM41.7774 40.3945C41.2969 42.8906 40.1484 44.332 38.6016 44.3438C37.7227 44.3555 37.5703 44.1797 37.5117 43.0313C37.4766 42.2344 37.6758 39.9258 37.8164 39.6914C37.8399 39.6445 38.7774 39.6094 39.8906 39.6094H41.9297L41.7774 40.3945Z"/>
        </g>
    </symbol>
    <symbol id="certificate" viewBox="0 0 60 60">
        <path d="M58.125 0.9375H1.875C1.35656 0.9375 0.9375 1.3575 0.9375 1.875V43.125C0.9375 43.6425 1.35656 44.0625 1.875 44.0625H12.9562L11.2631 54.2203C11.205 54.5681 11.3475 54.9197 11.6316 55.1287C11.9147 55.3387 12.2906 55.3706 12.6075 55.2131L19.6875 51.6731L26.7684 55.2131C26.9006 55.2797 27.045 55.3125 27.1875 55.3125C27.3844 55.3125 27.5803 55.2506 27.7444 55.1287C28.0284 54.9197 28.17 54.5681 28.1128 54.2203L26.4188 44.0625H45.9375V49.6875H43.125C42.6066 49.6875 42.1875 50.1075 42.1875 50.625V53.4375H41.25C40.7316 53.4375 40.3125 53.8575 40.3125 54.375V58.125C40.3125 58.6425 40.7316 59.0625 41.25 59.0625H56.25C56.7684 59.0625 57.1875 58.6425 57.1875 58.125V54.375C57.1875 53.8575 56.7684 53.4375 56.25 53.4375H55.3125V50.625C55.3125 50.1075 54.8934 49.6875 54.375 49.6875H51.5625V44.0625H58.125C58.6434 44.0625 59.0625 43.6425 59.0625 43.125V1.875C59.0625 1.3575 58.6434 0.9375 58.125 0.9375ZM10.8459 33.4378C10.8459 33.4378 10.845 33.4378 10.8459 33.4378C10.5469 34.2844 10.38 35.1656 10.3331 36.0637C9.19219 35.4094 8.4375 34.1831 8.4375 32.8125V12.1875C8.4375 10.1194 10.1194 8.4375 12.1875 8.4375H47.8125C49.8806 8.4375 51.5625 10.1194 51.5625 12.1875V32.8125C51.5625 33.4819 51.3806 34.1194 51.0497 34.6875H45C44.4816 34.6875 44.0625 35.1075 44.0625 35.625V36.5625H29.0625C29.0625 31.3931 24.8569 27.1875 19.6875 27.1875C15.7219 27.1875 12.1678 29.6991 10.8459 33.4378ZM50.625 38.4375H46.875H45.9375V36.5625H51.5625V38.4375H50.625ZM12.6141 34.0622C13.6716 31.0716 16.5141 29.0625 19.6875 29.0625C23.8228 29.0625 27.1875 32.4272 27.1875 36.5625C27.1875 40.6978 23.8228 44.0625 19.6875 44.0625C15.5522 44.0625 12.1875 40.6978 12.1875 36.5625C12.1875 35.7047 12.3309 34.8638 12.6141 34.0622ZM20.1066 49.7859C19.8431 49.6538 19.5319 49.6538 19.2675 49.7859L13.4147 52.7128L14.7778 44.5331C16.2084 45.4181 17.8866 45.9375 19.6875 45.9375C21.4884 45.9375 23.1666 45.4181 24.5972 44.5341L25.9603 52.7137L20.1066 49.7859ZM27.1697 42.1875C27.9928 41.0953 28.5909 39.825 28.8741 38.4375H44.0625V39.375C44.0625 39.8925 44.4816 40.3125 45 40.3125H45.9375V42.1875H27.1697ZM55.3125 57.1875H42.1875V55.3125H43.125H54.375H55.3125V57.1875ZM53.4375 53.4375H44.0625V51.5625H46.875H50.625H53.4375V53.4375ZM47.8125 49.6875V40.3125H49.6875V49.6875H47.8125ZM57.1875 42.1875H51.5625V40.3125H52.5C53.0184 40.3125 53.4375 39.8925 53.4375 39.375V35.625C53.4375 35.3091 53.2716 35.0438 53.0316 34.8731C53.2894 34.2225 53.4375 33.5306 53.4375 32.8125V12.1875C53.4375 9.08531 50.9147 6.5625 47.8125 6.5625H12.1875C9.08531 6.5625 6.5625 9.08531 6.5625 12.1875V32.8125C6.5625 35.2631 8.17219 37.4016 10.4569 38.145C10.7137 39.6441 11.3259 41.0203 12.2053 42.1875H2.8125V2.8125H57.1875V42.1875Z"/>
        <path d="M19.6875 42.1875C22.7897 42.1875 25.3125 39.6647 25.3125 36.5625C25.3125 33.4603 22.7897 30.9375 19.6875 30.9375C16.5853 30.9375 14.0625 33.4603 14.0625 36.5625C14.0625 39.6647 16.5853 42.1875 19.6875 42.1875ZM19.6875 32.8125C21.7556 32.8125 23.4375 34.4944 23.4375 36.5625C23.4375 38.6306 21.7556 40.3125 19.6875 40.3125C17.6194 40.3125 15.9375 38.6306 15.9375 36.5625C15.9375 34.4944 17.6194 32.8125 19.6875 32.8125Z"/>
        <path d="M35.625 12.1875H24.375V14.0625H35.625V12.1875Z"/>
        <path d="M40.3125 15.9375H19.6875V17.8125H40.3125V15.9375Z"/>
        <path d="M35.625 19.6875H24.375V21.5625H35.625V19.6875Z"/>
    </symbol>
    <symbol id="shield" viewBox="0 0 100 131">
        <path d="M48.345 0.406326C47.9346 0.636658 46.1906 2.14656 44.4722 3.81001C37.804 10.2591 30.7766 14.584 22.39 17.3735C16.6707 19.2673 9.92547 20.4445 4.66779 20.4445C2.56472 20.4445 1.23107 21.1099 0.512944 22.4918C0 23.4643 0 23.9506 0 44.5518C0 69.6059 0.153883 72.0115 2.30825 80.4567C4.6165 89.5417 8.87393 98.3964 14.542 105.92C22.5439 116.541 33.5465 124.884 45.9854 129.72C47.7807 130.437 49.6017 131 50.0377 131C51.4739 131 58.809 127.929 62.9382 125.575C69.786 121.685 76.0696 116.72 80.9939 111.295C91.0475 100.239 97.1516 87.2385 99.4085 72.1394C99.7932 69.5803 99.8702 66.2534 99.9471 46.3688C100.05 23.6946 100.05 23.5411 99.5111 22.5174C98.793 21.1099 97.4594 20.4445 95.3563 20.4445C90.2012 20.4445 83.3277 19.2417 77.6341 17.3479C69.2731 14.584 62.297 10.2847 55.5775 3.81001C53.8591 2.17215 52.0895 0.611053 51.6278 0.380737C50.6019 -0.131088 49.3452 -0.131088 48.345 0.406326ZM52.2177 11.2571C62.3227 20.4189 76.6338 26.7144 89.8934 27.8149L92.2017 27.994V48.2113C92.2017 70.8855 92.2017 70.8087 90.2781 78.435C85.3795 97.7566 71.9917 113.47 53.5257 121.633C49.7299 123.323 50.1916 123.323 45.7802 121.301C37.9322 117.718 31.8538 113.444 25.878 107.302C16.0808 97.2192 10.2845 85.1911 8.15581 70.476C7.89934 68.7358 7.82239 63.2336 7.82239 48.0834V27.994L8.84828 27.9172C16.5424 27.431 25.1343 25.0766 32.7002 21.3658C38.676 18.4228 43.1386 15.4542 47.832 11.2571C48.9349 10.2591 49.9351 9.44015 50.0377 9.44015C50.1403 9.44015 51.1149 10.2591 52.2177 11.2571Z"/>
        <path d="M46.4214 30.8342C38.163 31.8579 31.2639 35.2104 25.5189 41.0197C20.4151 46.1636 17.4913 51.6402 15.9781 58.8314C15.3626 61.8512 15.3626 68.6073 15.9781 71.6272C17.4913 78.8184 20.4407 84.3206 25.5189 89.4389C30.674 94.634 36.3164 97.6794 43.6002 99.1893C46.6009 99.8035 53.3461 99.8035 56.4751 99.1893C63.3998 97.8073 69.1448 94.7363 74.2742 89.6692C79.4549 84.5765 82.5326 78.8952 84.0458 71.6272C84.6613 68.6073 84.6613 61.8512 84.0458 58.8314C83.0455 54.0969 81.2246 49.7208 78.6086 45.7797C76.9928 43.3485 71.9916 38.3325 69.6064 36.7715C65.4772 34.0332 61.0146 32.165 56.6289 31.3205C54.5515 30.911 48.2167 30.6039 46.4214 30.8342ZM56.1673 39.0747C61.2454 40.4055 65.5285 42.8111 69.0165 46.2659C72.4789 49.7208 74.8128 53.8666 76.249 59.0873C76.9928 61.8768 76.9928 68.5818 76.249 71.3712C74.8128 76.5919 72.4789 80.7377 69.0165 84.1926C65.5542 87.6475 61.3993 89.9763 56.1673 91.4094C53.3717 92.1516 46.6522 92.1516 43.8566 91.4094C38.6246 89.9763 34.4698 87.6475 31.0074 84.1926C21.1076 74.2887 20.4664 58.6011 29.5455 47.827C33.4695 43.1693 39.907 39.5609 45.9084 38.6396C48.4218 38.2558 53.8847 38.4861 56.1673 39.0747Z"/>
        <path d="M63.7333 54.1228C63.3229 54.3532 58.8859 58.5758 53.936 63.5149L44.8826 72.5232L40.9842 68.6332C38.8298 66.5091 36.7011 64.5898 36.2395 64.3595C33.1105 62.7984 29.6225 66.2788 31.187 69.401C31.7512 70.527 41.9588 80.7636 43.1386 81.3778C44.2927 81.9664 45.3955 81.992 46.4983 81.4546C47.6268 80.8916 68.1446 60.4695 68.7601 59.2923C69.3756 58.0639 69.3756 57.0147 68.7345 55.7607C67.8368 53.9949 65.4773 53.2271 63.7333 54.1228Z"/>
    </symbol>
    <symbol id="cup" viewBox="0 0 325.266 325.266">
        <path d="M234.544,126.74h18.221c39.977,0,72.5-32.523,72.5-72.5c0-4.143-3.357-7.5-7.5-7.5h-52.273
        c1.643-11.026,2.487-22.399,2.487-33.959c0-4.143-3.357-7.5-7.5-7.5s-7.5,3.357-7.5,7.5c0,38.059-9.707,73.738-27.333,100.465
        c-16.991,25.764-39.265,39.953-62.718,39.953s-45.728-14.189-62.719-39.953C83.747,88.282,74.192,55.509,73.003,20.281h134.081
        c4.143,0,7.5-3.357,7.5-7.5s-3.357-7.5-7.5-7.5H65.377c-4.143,0-7.5,3.357-7.5,7.5c0,11.56,0.844,22.933,2.487,33.959H7.5
        c-4.143,0-7.5,3.357-7.5,7.5c0,30.601,19.359,58.054,48.172,68.315c0.832,0.296,1.681,0.437,2.517,0.437
        c3.082,0,5.972-1.916,7.065-4.985c1.39-3.902-0.647-8.192-4.549-9.582c-20.468-7.289-34.921-25.52-37.713-46.685h47.65
        c4.936,22.227,13.247,42.631,24.545,59.764c13.87,21.03,31.088,35.451,49.975,42.243v83.737h-7.938
        c-17.36,0-31.887,12.365-35.235,28.75H76.201c-4.143,0-7.5,3.357-7.5,7.5v28.75c0,4.143,3.357,7.5,7.5,7.5h173.454
        c4.143,0,7.5-3.357,7.5-7.5v-28.75c0-4.143-3.357-7.5-7.5-7.5h-18.288c-3.349-16.385-17.875-28.75-35.234-28.75h-7.938v-83.737
        C205.469,157.535,221.347,144.939,234.544,126.74z M309.778,61.74c-3.686,28.176-27.848,50-57.013,50h-8.685
        c8.319-14.928,14.604-31.854,18.633-50H309.778z M242.155,304.984H83.701v-13.75h17.561h123.333h17.561V304.984z M215.816,276.234
        H110.04c2.947-8.016,10.659-13.75,19.685-13.75h15.438h35.532h15.438C205.158,262.484,212.869,268.219,215.816,276.234z
        M173.194,247.484h-20.532v-80.008c3.389,0.476,6.813,0.723,10.267,0.723c3.453,0,6.877-0.247,10.266-0.723V247.484z"/>
    </symbol>
    <symbol id="price" viewBox="0 0 474.9 474.9">
        <g transform="translate(0 -540.36)">
            <g>
                <g>
                    <path d="M382.654,668.86c24,0,43.5-19.5,43.5-43.5s-19.5-43.5-43.5-43.5s-43.5,19.5-43.5,43.5S358.654,668.86,382.654,668.86z
                        M382.654,596.86c15.7,0,28.5,12.8,28.5,28.5s-12.8,28.5-28.5,28.5s-28.5-12.8-28.5-28.5S366.954,596.86,382.654,596.86z"/>
                    <path d="M267.354,675.26l-61.7,55.8l-6.9-7.7c-2.8-3.1-7.5-3.3-10.6-0.5c-3.1,2.8-3.3,7.5-0.5,10.6l6.9,7.7l-9.6,8.7l-6.9-7.7
                        c-2.8-3.1-7.5-3.3-10.6-0.5c-3.1,2.8-3.3,7.5-0.5,10.6l6.9,7.7l-29,26.1c-3.1,2.8-3.3,7.5-0.5,10.6s7.5,3.3,10.6,0.5l29-26.1
                        l31.9,35.3c2.8,3.1,7.5,3.3,10.6,0.5c3.1-2.8,3.3-7.5,0.5-10.6l-31.9-35.3l9.6-8.7l16.8,18.6v0c18.6,20.5,51.1,21.5,72.6,2.1
                        s24.1-51.4,6-72.8c-0.1-0.1-0.1-0.1-0.2-0.2l-21.9-24.2C275.154,672.66,270.454,672.46,267.354,675.26z M288.654,709.96
                        c12.8,15.2,10.7,37.9-4.7,51.8c-15.3,13.8-38.4,13.4-51.4-1l-16.8-18.6l56.2-50.7L288.654,709.96z"/>
                    <path d="M459.954,540.36h-186.4c-1.8,0-3.5,0.6-4.9,1.8l-258.6,222.6c-1.6,1.3-2.5,3.3-2.6,5.4s0.7,4.1,2.2,5.6l186.4,183.1
                        c1.5,1.4,3.4,2.1,5.3,2.1v0c1.7,0,3.5-0.6,4.9-1.7l258.6-221.9c1.6-1.4,2.6-3.5,2.6-5.7v-183.8
                        C467.454,543.76,464.054,540.36,459.954,540.36z M452.554,728.16l-250.8,215.1l-175.7-172.5v0l250.4-215.5h176.1V728.16z"/>
                    <path d="M455.054,780.26l-253.3,217.3l-181.5-181.3c-2.9-2.9-7.7-2.9-10.6,0c-2.9,2.9-2.9,7.7,0,10.6l186.4,186.2
                        c1.5,1.5,3.4,2.2,5.3,2.2c1.7,0,3.5-0.6,4.9-1.7l258.6-221.9c3.1-2.7,3.5-7.5,0.8-10.6S458.154,777.56,455.054,780.26z"/>
                </g>
            </g>
        </g>
    </symbol>
    <symbol id="checkmark" viewBox="0 0 612 792">
        <g>
            <path class="st0" d="M562,396c0-141.4-114.6-256-256-256S50,254.6,50,396s114.6,256,256,256S562,537.4,562,396L562,396z    M501.7,296.3l-241,241l0,0l-17.2,17.2L110.3,421.3l58.8-58.8l74.5,74.5l199.4-199.4L501.7,296.3L501.7,296.3z"/>
        </g>
    </symbol>
    <symbol id="cross" viewBox="0 0 612 792">
        <g>
            <path class="st0" d="M562,396c0-141.4-114.6-256-256-256S50,254.6,50,396s114.6,256,256,256S562,537.4,562,396L562,396z M356.8,396   L475,514.2L424.2,565L306,446.8L187.8,565L137,514.2L255.2,396L137,277.8l50.8-50.8L306,345.2L424.2,227l50.8,50.8L356.8,396   L356.8,396z"/>
        </g>
    </symbol>
    <symbol id="prepayment" viewBox="0 0 60.618 60.618">
        <path d="M40.147,47.552l3,3H12.054c-4.272,0-7.746-3.475-7.746-7.746V18.682c0-1.938,0.72-3.708,1.901-5.068l2.139,2.139
        c-0.641,0.81-1.04,1.819-1.04,2.929v2.235h6.204l8.27,8.27H7.308v13.619c0,2.617,2.129,4.746,4.746,4.746H40.147z M52.872,50.552
        h-0.069l6.074,6.074c0.781,0.781,0.781,2.047,0,2.828c-0.391,0.391-0.902,0.586-1.414,0.586s-1.023-0.195-1.414-0.586L0.586,3.992
        c-0.781-0.781-0.781-2.047,0-2.828c0.781-0.781,2.047-0.781,2.828,0l9.772,9.771h39.686c4.271,0,7.746,3.476,7.746,7.747v24.124
        C60.618,47.078,57.144,50.552,52.872,50.552z M16.186,13.935l6.983,6.982h34.45v-2.235c0-2.617-2.129-4.747-4.746-4.747H16.186z
        M49.804,47.552h3.069c2.617,0,4.746-2.129,4.746-4.746V29.187h-26.18L49.804,47.552z"/>
    </symbol>
    <symbol id="fixedprice" viewBox="0 0 1000 1000">
        <path d="M659.2,466.8l-123-76.6c-3.5-2.2-7.5-2.7-11.2-1.8c-3.7,0.9-7.1,3.1-9.2,6.6L316.1,715.7l27.9,120.2l120.2-28l199.7-320.8c2.2-3.5,2.7-7.5,1.8-11.2C664.9,472.3,662.7,468.9,659.2,466.8L659.2,466.8z M376.6,691.2l119.5-191.9L579,551L459.6,742.9L376.6,691.2L376.6,691.2z M358.1,732.8l72.3,45l-58.6,13.6L358.1,732.8z M603.2,511.5l-82.4-51.3l16.6-26.7l82.4,51.4L603.2,511.5z"/>
        <path d="M511.3,330.6c-23.9-124.7-415.1-125.1-448.9-0.5v358.8c8.4,60.2,107.4,76.5,207.8,80.9v-53.1c-138.4-4.2-152.4-36.6-152.4-49c0-13,0-95.3,0-95.3s22.5,48,173.3,48c9.9,0,31.7-0.2,49.4-0.7v-62.2c-17.8,0.5-39.6,0.8-49.4,0.8c-157.5,0.7-173.3-59-173.3-72.3c0-13.2,0-83.1,0-83.1s16.9,41.9,167.6,41.9c150.7,0,190.7-43.8,190.7-43.8S519.2,371.6,511.3,330.6L511.3,330.6z M286.1,396.5c-99.7-1.8-148-26.2-145.1-55.7c2.2-22.6,46.6-59.7,145.1-58.4c98.5,1.3,160.6,22.9,162.8,56.2C451,370.1,387.2,398.3,286.1,396.5z"/>
        <path d="M162.1,10v152h57.1V61.7h661.4l1.2,700.3H709.1l0.1,176.3H219.2V836.4h-57.1V990h547l228.5-228V10H162.1z"/>
        <path d="M709.1,224.5h111.4v80.1H709.1V224.5L709.1,224.5z"/>
        <path d="M709.1,382.8h111.4v80.1H709.1V382.8L709.1,382.8z"/>
        <path d="M709.1,541.1h111.4v80.1H709.1V541.1L709.1,541.1z"/>
    </symbol>
    <symbol id="guarantee" viewBox="0 0 1000 1000">
        <path d="M882.4,147.6c-11.5-10.6-26.6-16.5-42.2-16.5c-1.4,0-2.8,0.1-4.3,0.1c-0.9,0.1-10.8,0.7-26.3,0.7c-25.7,0-76-1.7-123.6-13.4c-61.5-15-132.4-84.5-153.1-98.2C522.6,13.4,510.6,10,498.6,10c-11.9,0-24.5,2.6-34.3,10.3c-17.5,13.8-76.8,80.6-149.4,98.3c-47.6,11.6-98.8,13.4-124.5,13.4c-15.5,0-25.5-0.6-26.4-0.7c-1.4-0.1-2.7-0.1-4.1-0.1c-15.6,0-30.8,5.9-42.3,16.6C105.1,159.3,98,175.5,98,192.5v153.4C98,913.1,471.8,986.2,487.7,989c3.6,0.6,7.3,1,10.9,1c3.7,0,7.3-0.3,10.9-1c15.9-2.8,392.5-75.9,392.5-643.1V192.5C902,175.5,894.9,159.2,882.4,147.6L882.4,147.6L882.4,147.6z M840.2,345.9c0,522.4-341.6,582.7-341.6,582.7s-338.8-60.3-338.8-582.7V192.5c0,0,11.7,0.8,30.6,0.8c32.4,0,86.9-2.4,139.2-15.1c85.6-20.8,169-106.8,169-106.8s87.2,86,172.7,106.8c52.3,12.8,105.9,15.1,138.4,15.1c18.9,0,30.6-0.8,30.6-0.8L840.2,345.9L840.2,345.9L840.2,345.9z"/>
        <path d="M732.4,393.4c14.4-14.4,14.4-38.1,0-52.5l0,0c-14.4-14.4-38.1-14.4-52.5,0L440.4,580.4L320.1,460c-14.4-14.4-38.1-14.4-52.5,0c-14.4,14.4-14.4,38.1,0,52.5l146.6,146.6c14.4,14.4,38.1,14.4,52.5,0L732.4,393.4z"/>
    </symbol>
     <symbol id="short" viewBox="0 0 489.42 489.42">
         <path d="M46.1,138.368c4.2,2.1,16.1,8.4,29.1-6.2c5.2-7.3,10.4-14.6,16.6-21.8c7.3-8.3,6.2-21.8-2.1-29.1
			c-8.3-7.3-21.8-6.2-29.1,2.1s-14.6,17.7-20.8,27C33.7,119.668,36.8,132.068,46.1,138.368z"/>
		<path d="M249,40.568c19.8,0,39.5,3.1,58.3,9.4c12.6,3.7,21.8-4.2,26-12.5c3.1-11.4-3.1-22.9-13.5-26
			c-22.9-7.3-45.8-11.4-69.7-11.4c-11.4,0-20.8,8.3-20.8,19.8S237.6,40.568,249,40.568z"/>
		<path d="M434.2,167.468c7.3,17.7,11.4,36.4,13.5,55.1c0,0,1.2,23.2,22.9,19.8c21.5-2.8,18.7-23.9,18.7-23.9
			c-2.1-22.9-8.3-45.8-16.6-66.6c-5.2-10.4-16.6-15.6-27-11.4C435.2,145.668,430,157.068,434.2,167.468z"/>
		<path d="M359.3,75.968c16.6,11.4,31.2,25,43.7,40.6c9.3,11.6,25,6.8,28.1,3.1c8.3-7.3,10.4-20.8,3.1-29.1
			c-14.6-17.7-32.3-34.3-52-47.9c-9.4-6.2-21.8-4.2-28.1,5.2S349.9,69.668,359.3,75.968z"/>
		<path d="M134.6,72.768c16.6-10.4,35.4-18.7,54.1-23.9c11.4-3.1,17.7-14.6,14.6-25c-3.1-11.4-14.6-17.7-25-14.6
			c-22.9,6.2-44.7,15.6-64.5,28.1c-9.4,6.2-12.5,18.7-6.2,28.1C111.7,71.768,120.5,77.968,134.6,72.768z"/>
		<path d="M468.5,268.368c-11.4-3.1-21.8,4.2-23.9,15.6c-2.1,9.4-8.5,31.3-8.6,33.4c-27.5,71.5-93.5,121.8-169.3,129.9
			c-74.6,7.8-147.2-25.9-189.3-86.5l38.5,8.5c10.4,2.1,21.8-4.2,23.9-15.6c2.1-10.4-4.2-21.8-15.6-23.9l-81.1-17.7
			c-5.2-1-21.4,0-25,15.6l-17.7,82.2c-2.1,10.4,4.2,21.8,15.6,23.9c12.7,1.3,21.8-6.2,25-16.6l6.2-28.2
			c46.3,62.7,129.9,109.1,223.7,99c94.6-10.2,174.8-73.9,206-163.3c1-2.6,5.7-24.4,7.3-32.3
			C487.3,280.868,480,270.468,468.5,268.368z"/>
		<path d="M164.6,265.268h95.9c11.4,0,19.8-9.4,20.8-20.8v-142.2c0-11.4-9.4-20.8-20.8-20.8c-11.4,0-20.8,9.4-20.8,20.8v121.4h-75.1
			c-11.4,0-20.8,9.4-20.8,20.8S153.1,265.268,164.6,265.268z"/>
    </symbol>
    <symbol id="replacement" viewBox="0 0 1000 1000">
        <path d="M110.9,387.1c0-61.9,50.2-112.1,112.1-112.1c61.9,0,112.1,50.2,112.1,112.1c0,61.9-50.2,112.1-112.1,112.1C161,499.1,110.9,449,110.9,387.1z M397.3,661c0-68.8-55.8-124.5-124.5-124.5h-99.6c-68.8,0-124.5,55.8-124.5,124.5v49.8h348.7V661L397.3,661z M665,387.1c0,61.9,50.2,112.1,112.1,112.1c61.9,0,112.1-50.2,112.1-112.1c0-61.9-50.2-112.1-112.1-112.1C715.2,275,665,325.2,665,387.1z M826.9,536.5h-99.6c-68.8,0-124.5,55.8-124.5,124.5v49.8h348.7V661C951.4,592.2,895.7,536.5,826.9,536.5z M632.1,881.7c-33.5,8.4-70.5,12.7-110.5,12.7c-177.1,0-237.1-81.9-240-86c-9.6-14.1-28.8-17.9-43-8.4c-14.3,9.5-18.2,28.9-8.6,43.2c3.1,4.6,78.1,113.5,291.6,113.5c52.7,0,101.3-6.7,144.7-19.8l33,53.2l88-164.1l-186.2,5.8L632.1,881.7z M365.6,118.3c33.5-8.4,70.5-12.7,110.5-12.7c177.1,0,237.1,81.9,240,86c6,8.8,15.8,13.6,25.8,13.6c5.9,0,11.9-1.7,17.2-5.2c14.3-9.5,18.2-28.9,8.6-43.2c-3.1-4.6-78.1-113.5-291.6-113.5c-52.7,0-101.2,6.7-144.7,19.8l-33-53.2l-88,164.1l186.1-5.8L365.6,118.3z"/>
    </symbol>
    <symbol id="drill" viewBox="0 0 512 512">
        <path d="M433.445,258.493c8.406,0,15.245-6.839,15.245-15.245s-6.839-15.245-15.245-15.245c-8.405,0-15.244,6.839-15.244,15.245    S425.04,258.493,433.445,258.493z M433.445,240.003c1.789,0,3.245,1.456,3.245,3.245s-1.456,3.245-3.245,3.245    s-3.244-1.456-3.244-3.245S431.656,240.003,433.445,240.003z"/>
        <path d="M146.404,159.271c3.457,5.261,9.402,8.747,16.153,8.747h30.862v-5.045h13.839v13.441h28.463v52.182h6.386v36.066h-6.386    v105.417h-7.831v12h7.831h42.851h7.66v-12h-7.66V264.662h-6.545v-26.854h103.314c1.889,0,3.77-0.046,5.639-0.129l4.221,44.044    l15.242-1.464l6.605,67.821l-24.904,24.772v35.724h110.463V121.794h-0.141c0.092-2.088,0.138-4.189,0.138-6.301v-6.001    l-143.263,0.026l-10.793-6.096h-78.521v8.808h-12.306h-12h-28.463v13.441h-13.839v-5.045h-30.862    c-5.28,0-10.069,2.133-13.561,5.578l-39.382,9.936c-1.328,0.335-2.473,1.042-3.374,1.975H19.393v12h90.72L146.404,159.271z     M263.067,370.079v-13.573h-12v13.573h-3.346v-93.417h3.346v68.48h12v-68.48h3.505v93.417H263.067z M260.027,264.662h-5.92    v-36.066h5.92v9.212V264.662z M399.266,268.316l-3.264,0.313l-3.072-32.058c1.074-0.153,2.146-0.317,3.211-0.498l2.178,22.365    L399.266,268.316z M468.784,266.238v-74.685c4.571-6.237,8.524-12.95,11.823-20.049v204.8h-11.823V270.467V266.238z     M475.604,151.205h-56.854v12h52.571c-3.051,7.225-6.803,13.965-11.187,20.143h-53.412c-24.186,0-44.212-18.151-47.171-41.546    h118.4C477.288,145.001,476.508,148.14,475.604,151.205z M456.784,262.01l-44.513,15.893l-2.018-20.714l-2.276-23.746    c18.478-5.118,35.169-14.641,48.807-28.029V262.01z M415.774,356.326h26.916v-12h-23.95l-5.27-54.109l43.313-15.465v101.553    h-61.095L415.774,356.326z M394.145,396.576v-8.271h86.463v8.271H394.145z M272.027,115.423h63.367l10.795,6.097l134.284-0.025    c-0.124,2.807-0.335,5.576-0.63,8.307H347.177v6c0,32.834,26.712,59.546,59.547,59.546h43.413    c-18.646,19.146-44.68,30.46-74.795,30.46H272.027v-9.212V115.423z M247.721,124.231h12.306v92.364h-12.306v-40.182V124.231z     M219.258,124.231h16.463v40.182h-16.463v-1.441v-37.3V124.231z M193.958,137.672h13.301v13.3h-13.301V137.672z M162.558,132.627    h18.862v23.391h-18.862c-4.039,0-7.326-3.286-7.326-7.326v-8.74C155.232,135.913,158.519,132.627,162.558,132.627z     M143.232,140.035v6.061l-12.009-3.03L143.232,140.035z"/>
    </symbol>
    <symbol id="like" viewBox="0 0 65 65">
        <path class="st0" d="M56.4,62.8h-16c-0.4,0-0.8,0.3-0.8,0.8s0.3,0.8,0.8,0.8h16c0.4,0,0.8-0.3,0.8-0.8S56.8,62.8,56.4,62.8z"/>
        <path class="st0" d="M62.4,62.8h-2c-0.4,0-0.8,0.3-0.8,0.8s0.3,0.8,0.8,0.8h2c0.4,0,0.8-0.3,0.8-0.8S62.8,62.8,62.4,62.8z"/>
        <path class="st0" d="M18.4,9.3c0.4,0,0.8-0.3,0.8-0.8v-7c0-0.4-0.3-0.8-0.8-0.8s-0.8,0.3-0.8,0.8v7C17.6,8.9,17.9,9.3,18.4,9.3z"/><path class="st0" d="M18.4,14.3c0.4,0,0.8-0.3,0.8-0.8v-1c0-0.4-0.3-0.8-0.8-0.8s-0.8,0.3-0.8,0.8v1C17.6,13.9,17.9,14.3,18.4,14.3   z"/>
        <path class="st0" d="M58.4,20.3h1.3v1.3c0,0.4,0.3,0.8,0.8,0.8s0.8-0.3,0.8-0.8v-1.3h1.3c0.4,0,0.8-0.3,0.8-0.8s-0.3-0.8-0.8-0.8   h-1.3v-1.3c0-0.4-0.3-0.8-0.8-0.8s-0.8,0.3-0.8,0.8v1.3h-1.3c-0.4,0-0.8,0.3-0.8,0.8S57.9,20.3,58.4,20.3z"/>
        <path class="st0" d="M31.4,9.3h1.3v1.3c0,0.4,0.3,0.8,0.8,0.8s0.8-0.3,0.8-0.8V9.3h1.3c0.4,0,0.8-0.3,0.8-0.8s-0.3-0.8-0.8-0.8   h-1.3V6.5c0-0.4-0.3-0.8-0.8-0.8s-0.8,0.3-0.8,0.8v1.3h-1.3c-0.4,0-0.8,0.3-0.8,0.8S30.9,9.3,31.4,9.3z"/>
        <path class="st0" d="M63.2,31c-0.4-1.5-1.3-2.7-2.9-3.6c-1.3-0.8-3-1.2-4.7-1.2H48c-0.3-0.2-0.3-0.3-0.3-0.5c-0.2-1,1.3-3,2.4-4.1   c0.1-0.1,0.1-0.1,0.1-0.2C55.6,11,50.2,6.4,50,6.2c0,0-0.1,0-0.1-0.1c-1.4-0.8-2.6-1-3.7-0.4c-2.4,1.3-2.9,5.5-3,6.4   c-0.9,2.4-3.6,5.3-5.6,7.3c-1.8,1.9-3.6,4-5.1,6.3c-1.7,2.6-2.9,4.3-3.4,5c-1.1,1.4-2.4,1.5-2.4,1.5h-2.5v-2.9   c0-0.4-0.3-0.8-0.8-0.8H10.8c-0.4,0-0.8,0.3-0.8,0.8v2.4H2.4c-0.4,0-0.7,0.3-0.7,0.8s0.3,0.8,0.7,0.8h7.7v22.3H2.4   c-0.4,0-0.7,0.3-0.7,0.8S1.9,57,2.4,57h7.7v1.7c0,0.4,0.3,0.8,0.8,0.8h12.6c0.4,0,0.8-0.3,0.8-0.8v-2.2h1.9   c0.6,1.2,2.2,1.6,3.2,1.7h26.5c0,0,0.1,0,0.1,0c1.8-0.3,3-1.1,3.7-2.4c0.8-1.5,0.4-3.3,0.1-4.3c2.4-1.8,2.1-5,1.5-6.9   c2.9-2.5,2-6.1,0.8-8C63.2,34.6,63.7,32.7,63.2,31z M22.7,58H11.6V30.1h11.1V58z M60.7,36H50.4c-0.4,0-0.8,0.3-0.8,0.8   s0.3,0.8,0.8,0.8h10.4c0.6,1,2.1,4.1-0.7,6.2h-9.7c-0.4,0-0.8,0.3-0.8,0.8s0.3,0.8,0.8,0.8h9.4c0.3,1.1,1,4-1.2,5.4h-8.2   c-0.4,0-0.8,0.3-0.8,0.8s0.3,0.8,0.8,0.8h7.9c0.2,0.7,0.5,2,0,3.1c-0.4,0.8-1.3,1.3-2.5,1.6l-26.3,0c-0.4,0-1.9-0.3-2.1-1.1   c-0.1-0.4-0.4-0.6-0.7-0.6h-2.4V33.7h2.5c0.1,0,2.1,0,3.6-2.1c0.5-0.7,1.7-2.4,3.5-5.1c1.5-2.2,3.1-4.2,4.9-6c2.2-2.2,5-5.3,6-8   c0-0.1,0-0.1,0-0.2c0.1-1.2,0.6-4.5,2.2-5.3c0.6-0.3,1.3-0.2,2.2,0.3c0.4,0.4,4.4,4.3-0.2,13.3c-0.6,0.6-3.1,3.3-2.7,5.3   c0.1,0.5,0.4,1.2,1.3,1.6c0.1,0,0.2,0.1,0.3,0.1h7.8c1.5,0,2.9,0.3,4,1c1.2,0.7,1.9,1.6,2.2,2.7C62.1,32.7,61.7,34.2,60.7,36z"/>
        <path class="st0" d="M17.1,49.6c-1.6,0-2.9,1.3-2.9,2.9s1.3,2.9,2.9,2.9s2.9-1.3,2.9-2.9S18.7,49.6,17.1,49.6z M17.1,53.8   c-0.7,0-1.4-0.6-1.4-1.4s0.6-1.4,1.4-1.4s1.4,0.6,1.4,1.4S17.9,53.8,17.1,53.8z"/>
    </symbol>
    <symbol id="right" viewBox="0 0 306 306">
        <polygon points="58.65,267.75 175.95,153 58.65,35.7 94.35,0 247.35,153 94.35,306"/>
    </symbol>
    <symbol id="left" viewBox="0 0 306 306">
        <polygon points="247.35,35.7 211.65,0 58.65,153 211.65,306 247.35,270.3 130.05,153"/>
    </symbol>
</svg>