<svg width="100" height="131" viewBox="0 0 100 131" fill="none" xmlns="http://www.w3.org/2000/svg">
<path d="M48.345 0.406326C47.9346 0.636658 46.1906 2.14656 44.4722 3.81001C37.804 10.2591 30.7766 14.584 22.39 17.3735C16.6707 19.2673 9.92547 20.4445 4.66779 20.4445C2.56472 20.4445 1.23107 21.1099 0.512944 22.4918C0 23.4643 0 23.9506 0 44.5518C0 69.6059 0.153883 72.0115 2.30825 80.4567C4.6165 89.5417 8.87393 98.3964 14.542 105.92C22.5439 116.541 33.5465 124.884 45.9854 129.72C47.7807 130.437 49.6017 131 50.0377 131C51.4739 131 58.809 127.929 62.9382 125.575C69.786 121.685 76.0696 116.72 80.9939 111.295C91.0475 100.239 97.1516 87.2385 99.4085 72.1394C99.7932 69.5803 99.8702 66.2534 99.9471 46.3688C100.05 23.6946 100.05 23.5411 99.5111 22.5174C98.793 21.1099 97.4594 20.4445 95.3563 20.4445C90.2012 20.4445 83.3277 19.2417 77.6341 17.3479C69.2731 14.584 62.297 10.2847 55.5775 3.81001C53.8591 2.17215 52.0895 0.611053 51.6278 0.380737C50.6019 -0.131088 49.3452 -0.131088 48.345 0.406326ZM52.2177 11.2571C62.3227 20.4189 76.6338 26.7144 89.8934 27.8149L92.2017 27.994V48.2113C92.2017 70.8855 92.2017 70.8087 90.2781 78.435C85.3795 97.7566 71.9917 113.47 53.5257 121.633C49.7299 123.323 50.1916 123.323 45.7802 121.301C37.9322 117.718 31.8538 113.444 25.878 107.302C16.0808 97.2192 10.2845 85.1911 8.15581 70.476C7.89934 68.7358 7.82239 63.2336 7.82239 48.0834V27.994L8.84828 27.9172C16.5424 27.431 25.1343 25.0766 32.7002 21.3658C38.676 18.4228 43.1386 15.4542 47.832 11.2571C48.9349 10.2591 49.9351 9.44015 50.0377 9.44015C50.1403 9.44015 51.1149 10.2591 52.2177 11.2571Z" fill="#F7C600"/>
<path d="M46.4214 30.8342C38.163 31.8579 31.2639 35.2104 25.5189 41.0197C20.4151 46.1636 17.4913 51.6402 15.9781 58.8314C15.3626 61.8512 15.3626 68.6073 15.9781 71.6272C17.4913 78.8184 20.4407 84.3206 25.5189 89.4389C30.674 94.634 36.3164 97.6794 43.6002 99.1893C46.6009 99.8035 53.3461 99.8035 56.4751 99.1893C63.3998 97.8073 69.1448 94.7363 74.2742 89.6692C79.4549 84.5765 82.5326 78.8952 84.0458 71.6272C84.6613 68.6073 84.6613 61.8512 84.0458 58.8314C83.0455 54.0969 81.2246 49.7208 78.6086 45.7797C76.9928 43.3485 71.9916 38.3325 69.6064 36.7715C65.4772 34.0332 61.0146 32.165 56.6289 31.3205C54.5515 30.911 48.2167 30.6039 46.4214 30.8342ZM56.1673 39.0747C61.2454 40.4055 65.5285 42.8111 69.0165 46.2659C72.4789 49.7208 74.8128 53.8666 76.249 59.0873C76.9928 61.8768 76.9928 68.5818 76.249 71.3712C74.8128 76.5919 72.4789 80.7377 69.0165 84.1926C65.5542 87.6475 61.3993 89.9763 56.1673 91.4094C53.3717 92.1516 46.6522 92.1516 43.8566 91.4094C38.6246 89.9763 34.4698 87.6475 31.0074 84.1926C21.1076 74.2887 20.4664 58.6011 29.5455 47.827C33.4695 43.1693 39.907 39.5609 45.9084 38.6396C48.4218 38.2558 53.8847 38.4861 56.1673 39.0747Z" fill="#F7C600"/>
<path d="M63.7333 54.1228C63.3229 54.3532 58.8859 58.5758 53.936 63.5149L44.8826 72.5232L40.9842 68.6332C38.8298 66.5091 36.7011 64.5898 36.2395 64.3595C33.1105 62.7984 29.6225 66.2788 31.187 69.401C31.7512 70.527 41.9588 80.7636 43.1386 81.3778C44.2927 81.9664 45.3955 81.992 46.4983 81.4546C47.6268 80.8916 68.1446 60.4695 68.7601 59.2923C69.3756 58.0639 69.3756 57.0147 68.7345 55.7607C67.8368 53.9949 65.4773 53.2271 63.7333 54.1228Z" fill="#F7C600"/>
</svg>
